<svg width="134" height="47" viewBox="0 0 134 47" fill="none" xmlns="http://www.w3.org/2000/svg">
<g clip-path="url(#clip0_1_10815)">
<rect width="134" height="47" fill="white"/>
<path d="M128.075 20.7818C128.075 20.8367 128.075 22.7088 128.075 22.7088C126.669 22.1073 125.136 21.8388 123.603 21.9255C121.645 22.0763 119.775 22.7757 118.219 23.9387C117.541 24.4841 117.008 25.1791 116.664 25.9654C116.32 26.7517 116.175 27.6066 116.241 28.4585C116.24 29.9758 116.846 31.4341 117.932 32.5258C119.018 33.6175 120.498 34.2572 122.061 34.31H133.96V33.6285C133.441 33.5371 132.968 33.28 132.617 32.8983C132.266 32.5165 132.057 32.0319 132.022 31.5213V21.5965C132.022 16.7007 127.227 15.2672 124.232 15.3298C122.056 15.3844 119.956 16.1178 118.243 17.4213L120.326 20.3667L121.23 19.7948C121.217 19.4609 121.284 19.1286 121.424 18.8232C121.564 18.5178 121.773 18.2474 122.037 18.0323C122.784 17.4727 123.719 17.2021 124.66 17.2731C125.601 17.344 126.481 17.7513 127.13 18.4162C127.719 19.0744 128.053 19.9108 128.075 20.7818ZM128.075 29.3985C128.075 30.644 126.888 31.9052 123.829 31.9052C122.906 31.8361 122.043 31.4389 121.404 30.7898C120.765 30.1406 120.395 29.2853 120.366 28.388C120.349 27.9021 120.435 27.418 120.618 26.9653C120.8 26.5126 121.076 26.1006 121.428 25.7547C121.78 25.4087 122.201 25.136 122.665 24.953C123.129 24.7701 123.627 24.6808 124.128 24.6907C126.759 24.6907 128.067 26.0458 128.067 27.0407C128.059 26.9858 128.067 28.9833 128.067 29.375L128.075 29.3985Z" fill="url(#paint0_linear_1_10815)"/>
<path d="M113.601 1.49622V22.2076C111.64 23.2416 109.92 26.1242 108.564 27.8632L108.427 6.50172C108.431 6.00377 108.262 5.51897 107.949 5.12438C107.636 4.7298 107.196 4.44809 106.7 4.32405V3.54072L113.601 1.49622Z" fill="url(#paint1_linear_1_10815)"/>
<path d="M107.079 33.3386C107.512 33.1902 107.889 32.9203 108.164 32.5633C108.438 32.2063 108.597 31.7782 108.621 31.3333V25.1293C109.355 23.3824 111.042 21.9959 113.634 20.1238V31.2784C113.657 31.7493 113.832 32.2011 114.135 32.5695C114.438 32.938 114.853 33.2044 115.321 33.3308V34.3178H107.111L107.079 33.3386Z" fill="url(#paint2_linear_1_10815)"/>
<path d="M103.608 31.3333C103.646 31.7894 103.828 32.223 104.128 32.5759C104.428 32.9288 104.833 33.184 105.287 33.3073V34.31H95.366H95.0512C93.4779 34.2691 91.9833 33.6338 90.8856 32.5394C89.7879 31.4449 89.174 29.9779 89.1746 28.4506V15.2515H94.8736V16.1836C94.4102 16.3279 94.0052 16.6095 93.7156 16.989C93.4259 17.3684 93.2663 17.8265 93.2591 18.2986L93.1946 27.8553C93.2297 28.7817 93.6307 29.6595 94.3144 30.3069C94.9981 30.9544 95.9122 31.3219 96.8675 31.3333C99.1761 31.3333 99.6201 29.657 99.6201 29.1243V15.2515H105.271V16.1915C104.803 16.3344 104.395 16.6179 104.105 17.001C103.815 17.384 103.658 17.8467 103.656 18.3221C103.656 18.3221 103.608 30.55 103.608 31.3333Z" fill="url(#paint3_linear_1_10815)"/>
<path d="M75.5889 8.21716V15.4865L71.4075 20.68V13.0503C71.4251 12.5701 71.2854 12.0967 71.0084 11.6984C70.7313 11.3001 70.3313 10.9972 69.8657 10.8335V9.8935L75.5889 8.21716Z" fill="url(#paint4_linear_1_10815)"/>
<path d="M77.1388 34.263H69.8737V33.3073C70.2926 33.1536 70.6566 32.8853 70.9217 32.535C71.1867 32.1846 71.3414 31.7672 71.3671 31.3333C71.3671 31.2785 71.3671 27.5577 71.3671 27.5577L75.5647 22.2623V31.3333C75.5775 31.7799 75.7315 32.2118 76.0059 32.5705C76.2803 32.9293 76.6617 33.1974 77.0984 33.3387L77.1388 34.263Z" fill="url(#paint5_linear_1_10815)"/>
<path d="M75.5889 17.2333C75.5889 17.2333 72.9816 20.4293 71.3994 22.5522C69.0504 25.6855 65.0627 31.0905 56.8047 31.0905C53.8987 31.0905 49.9029 30.4012 47.3682 26.3905C45.7404 23.6127 45.041 20.4132 45.3663 17.2333C46.012 11.9067 49.3459 6.86982 55.5616 6.86982C57.0853 6.88188 58.5858 7.23441 59.9465 7.90006C61.3072 8.56571 62.4916 9.52658 63.4078 10.7082C63.8572 11.3295 64.0944 12.0719 64.0859 12.831L64.8124 13.3872L64.9093 13.4655L69.3248 9.27465C67.3691 6.84643 64.7092 5.04174 61.6875 4.09288C58.6659 3.14401 55.4208 3.09439 52.3698 3.9504C49.3189 4.80641 46.6017 6.52887 44.5681 8.89609C42.5345 11.2633 41.2774 14.167 40.9588 17.2333C40.8993 17.785 40.8696 18.3393 40.87 18.894C40.871 20.9179 41.2842 22.9216 42.0857 24.79C42.8873 26.6584 44.0614 28.3548 45.5406 29.7815C47.0199 31.2082 48.7751 32.3372 50.7054 33.1036C52.6356 33.87 54.703 34.2587 56.7886 34.2473C62.6087 34.2473 67.1049 31.7407 71.4075 25.6855C71.6093 25.4035 74.8624 21.3145 74.8624 21.3145C74.8624 21.3145 76.9451 18.6982 77.0016 18.6512C77.249 18.4079 77.5515 18.2239 77.885 18.1138C78.2184 18.0036 78.5738 17.9704 78.9228 18.0167C79.8239 18.1412 80.6465 18.5826 81.2344 19.257C81.8222 19.9314 82.1343 20.7918 82.1113 21.6748V31.2158C82.1117 31.6799 81.9636 32.1326 81.6874 32.5115C81.4112 32.8904 81.0206 33.1767 80.5695 33.3308V34.263H87.8346V33.3308C87.3513 33.1979 86.9259 32.9156 86.6229 32.5269C86.3199 32.1381 86.1558 31.6641 86.1555 31.1767V21.2205C86.1706 20.4422 86.0254 19.6689 85.7286 18.9457C85.4318 18.2225 84.9893 17.5641 84.427 17.009C83.8647 16.4538 83.1939 16.0131 82.4539 15.7127C81.7139 15.4123 80.9196 15.2581 80.1175 15.2593C79.2627 15.265 78.4186 15.4434 77.6389 15.7833C76.8591 16.1232 76.161 16.617 75.5889 17.2333Z" fill="url(#paint6_linear_1_10815)"/>
<path d="M71.3914 31.2785C71.3914 31.2237 71.3914 27.5029 71.3914 27.5029L75.5889 22.2075V28.4194L71.3914 31.2785Z" fill="url(#paint7_linear_1_10815)"/>
<path d="M82.1033 21.526V30.5187H86.1475L86.1233 21.5417L82.1033 21.526Z" fill="url(#paint8_linear_1_10815)"/>
<path d="M40.9669 40.6158C40.9656 40.0866 41.1046 39.566 41.3705 39.104C41.6347 38.6359 42.0218 38.244 42.4925 37.9681C42.977 37.6773 43.5374 37.5277 44.107 37.5373C44.4104 37.5362 44.7123 37.5784 45.003 37.6626C45.248 37.7289 45.4818 37.8291 45.6972 37.9603C45.8664 38.0674 46.0282 38.1852 46.1816 38.3128C46.2928 38.4033 46.393 38.5058 46.4803 38.6183L46.569 38.7358L45.7618 39.4565L45.6488 39.3781C45.682 39.3324 45.699 39.2774 45.6972 39.2215C45.6807 39.0786 45.6325 38.9409 45.5558 38.8178C45.4792 38.6947 45.376 38.5893 45.2533 38.5086C44.9247 38.2531 44.5115 38.1223 44.0909 38.1405C43.804 38.1386 43.5206 38.2013 43.2629 38.3237C43.0052 38.446 42.7802 38.6246 42.6056 38.8455C42.183 39.3429 41.9595 39.9714 41.9759 40.6158C41.9641 41.2307 42.182 41.8289 42.5894 42.3C42.7711 42.525 43.0043 42.7058 43.2705 42.8282C43.5367 42.9506 43.8286 43.0111 44.1231 43.005C44.334 43.0066 44.5446 42.9908 44.7528 42.958C44.9134 42.933 45.0725 42.899 45.229 42.8561C45.3652 42.8149 45.4954 42.757 45.6165 42.6838L45.9071 42.4958L46.1735 42.2686L46.4157 42.0571L46.7224 42.3783L46.6256 42.5193C46.5301 42.6323 46.4277 42.7396 46.3188 42.8405C46.1629 42.9891 45.9926 43.1229 45.8103 43.24C45.5815 43.3788 45.3344 43.4869 45.0757 43.5611C44.7677 43.656 44.4463 43.7036 44.1231 43.7021C43.5497 43.7065 42.9879 43.5456 42.5087 43.24C42.0314 42.9516 41.6349 42.5534 41.3544 42.0806C41.0935 41.6344 40.9598 41.1288 40.9669 40.6158Z" fill="#898989"/>
<path d="M50.8958 43.0363C50.895 43.1588 50.9378 43.2777 51.0168 43.3731C51.0447 43.416 51.0827 43.4518 51.1276 43.4776C51.1725 43.5035 51.223 43.5187 51.2752 43.522V43.663H49.5638V43.522C49.6147 43.5181 49.6639 43.5026 49.7074 43.4767C49.7509 43.4509 49.7874 43.4154 49.8141 43.3731C49.8874 43.2812 49.9271 43.1682 49.9271 43.052V40.8273C49.9242 40.623 49.8657 40.423 49.7576 40.2476C49.7133 40.1598 49.6443 40.086 49.5586 40.0347C49.4729 39.9834 49.3739 39.9568 49.2732 39.9578C49.0939 39.9606 48.9207 40.0212 48.7808 40.1301C48.6285 40.2433 48.4974 40.3811 48.3933 40.5375V43.0363C48.3922 43.1575 48.4319 43.2758 48.5064 43.3731C48.5325 43.4158 48.5689 43.4517 48.6125 43.4776C48.6561 43.5035 48.7056 43.5188 48.7566 43.522V43.663H47.0533V43.522C47.1051 43.5179 47.1551 43.5015 47.1988 43.4742C47.2424 43.4468 47.2784 43.4094 47.3036 43.3653C47.3759 43.2699 47.4155 43.1548 47.4166 43.0363V38.5791C47.4172 38.4604 47.3775 38.3448 47.3036 38.2501C47.2775 38.2075 47.241 38.1716 47.1974 38.1457C47.1538 38.1198 47.1044 38.1045 47.0533 38.1013V37.9603L48.4337 37.6V39.6915C48.5433 39.5643 48.6787 39.4604 48.8314 39.3863C48.9842 39.3122 49.1511 39.2694 49.3217 39.2606C49.7317 39.2606 50.1276 39.4054 50.4356 39.668C50.6062 39.8152 50.74 39.9983 50.8267 40.2033C50.9135 40.4082 50.9509 40.6297 50.9361 40.8508L50.8958 43.0363Z" fill="#898989"/>
<path d="M55.384 39.2216V39.3626C55.3322 39.3666 55.2822 39.383 55.2386 39.4104C55.1949 39.4377 55.1589 39.4751 55.1337 39.5192C55.0614 39.6147 55.0218 39.7298 55.0207 39.8482V43.0364C55.0207 43.1574 55.0603 43.2754 55.1337 43.3732C55.1589 43.4173 55.1949 43.4547 55.2386 43.4821C55.2822 43.5094 55.3322 43.5258 55.384 43.5299V43.6631H53.1883C52.9997 43.6637 52.812 43.6373 52.6313 43.5847C52.4499 43.5297 52.2783 43.4478 52.1228 43.3419C51.953 43.2246 51.8191 43.0649 51.7353 42.8797C51.6324 42.6612 51.5827 42.4227 51.59 42.1826V39.2216H52.9219V39.3626C52.8709 39.3658 52.8214 39.381 52.7778 39.4069C52.7342 39.4329 52.6978 39.4687 52.6717 39.5114C52.5995 39.6039 52.5598 39.7165 52.5587 39.8326V42.1826C52.5582 42.3666 52.6144 42.5467 52.7201 42.6996C52.7689 42.7768 52.8379 42.84 52.9202 42.8827C53.0025 42.9254 53.0951 42.946 53.1883 42.9424C53.4776 42.9597 53.7638 42.8764 53.9955 42.7074V39.2216H55.384Z" fill="#898989"/>
<path d="M57.0469 37.6V43.0833C57.0463 43.202 57.086 43.3177 57.1599 43.4123C57.186 43.455 57.2224 43.4908 57.266 43.5168C57.3096 43.5427 57.3591 43.5579 57.4101 43.5611V43.6943H55.6988V43.5611C55.7497 43.5573 55.7988 43.5418 55.8423 43.5159C55.8858 43.49 55.9224 43.4545 55.949 43.4123C56.0235 43.3179 56.0632 43.2021 56.062 43.0833V38.6183C56.0632 38.4995 56.0235 38.3837 55.949 38.2893C55.9224 38.2471 55.8858 38.2116 55.8423 38.1857C55.7988 38.1598 55.7497 38.1443 55.6988 38.1405V37.9995L57.0469 37.6Z" fill="#898989"/>
<path d="M59.7349 43.663C59.2292 43.6834 58.7303 43.5432 58.3142 43.2634C58.1372 43.1431 57.9937 42.9822 57.8965 42.7949C57.7993 42.6076 57.7515 42.3999 57.7572 42.1903C57.7593 41.9845 57.8171 41.7828 57.9248 41.6054C58.0324 41.4281 58.1862 41.2813 58.3707 41.1798C58.749 40.9285 59.1958 40.7921 59.6542 40.7881C59.9833 40.7886 60.3074 40.8665 60.5987 41.0153V40.7333C60.6088 40.6369 60.6088 40.5398 60.5987 40.4434C60.5744 40.3349 60.5364 40.2297 60.4857 40.1301C60.4318 40.0189 60.3445 39.9261 60.2354 39.8638C60.11 39.7948 59.9679 39.7596 59.8237 39.7619C59.5933 39.7406 59.3618 39.7899 59.1618 39.9029C59.1003 39.9503 59.0513 40.0113 59.019 40.0808C58.9867 40.1503 58.972 40.2263 58.9761 40.3024L58.8066 40.4199L58.2254 39.5818L58.403 39.4564C58.5753 39.3699 58.7566 39.3017 58.9439 39.2528C59.2207 39.185 59.5061 39.156 59.7915 39.1666C60.0369 39.1516 60.2828 39.188 60.5126 39.2731C60.7424 39.3582 60.9507 39.4902 61.1234 39.6601C61.4609 40.0601 61.6284 40.57 61.5916 41.0858V43.0519C61.5892 43.1782 61.6289 43.3018 61.7046 43.4044C61.7303 43.4481 61.7664 43.4852 61.81 43.5124C61.8535 43.5397 61.9032 43.5564 61.9548 43.5611V43.6943L59.7349 43.663ZM58.7582 42.2216C58.7673 42.4162 58.8507 42.6005 58.9923 42.7386C59.0907 42.8346 59.2097 42.9083 59.3409 42.9544C59.4721 43.0004 59.6122 43.0177 59.7511 43.005C60.0274 43.0045 60.3011 42.954 60.5583 42.8561V41.6811C60.3179 41.5296 60.0378 41.4481 59.7511 41.4461C59.6131 41.4369 59.4747 41.4551 59.3442 41.4995C59.2138 41.5439 59.094 41.6137 58.9923 41.7046C58.8507 41.8427 58.7673 42.027 58.7582 42.2216Z" fill="#898989"/>
<path d="M63.6177 37.6V43.0833C63.6171 43.202 63.6568 43.3177 63.7307 43.4123C63.7568 43.455 63.7933 43.4908 63.8369 43.5168C63.8805 43.5427 63.9299 43.5579 63.981 43.5611V43.6943H62.2777V43.5611C62.3286 43.5573 62.3778 43.5418 62.4213 43.5159C62.4648 43.49 62.5013 43.4545 62.5279 43.4123C62.6024 43.3179 62.6422 43.2021 62.641 43.0833V38.6183C62.6422 38.4995 62.6024 38.3837 62.5279 38.2893C62.5013 38.2471 62.4648 38.2116 62.4213 38.1857C62.3778 38.1598 62.3286 38.1443 62.2777 38.1405V37.9995L63.6177 37.6Z" fill="#898989"/>
<path d="M64.9739 39.8403C65.1832 39.6299 65.434 39.4626 65.7114 39.3483C65.9887 39.2341 66.287 39.1752 66.5883 39.1752C66.8897 39.1752 67.1879 39.2341 67.4653 39.3483C67.7427 39.4626 67.9935 39.6299 68.2028 39.8403C68.6313 40.2557 68.8723 40.8192 68.8728 41.407C68.886 41.7161 68.8333 42.0245 68.718 42.313C68.6027 42.6014 68.4273 42.8637 68.2028 43.0833C67.9965 43.2987 67.7467 43.4706 67.4689 43.5881C67.1911 43.7056 66.8914 43.7662 66.5883 43.7662C66.2853 43.7662 65.9855 43.7056 65.7077 43.5881C65.43 43.4706 65.1801 43.2987 64.9739 43.0833C64.7573 42.871 64.5865 42.619 64.4715 42.3419C64.3565 42.0648 64.2995 41.7683 64.3039 41.4696C64.2955 41.1681 64.3505 40.8681 64.4657 40.5879C64.5809 40.3078 64.7538 40.0534 64.9739 39.8403ZM65.7004 42.5271C65.7997 42.6677 65.9329 42.7827 66.0883 42.8621C66.2437 42.9415 66.4167 42.983 66.5924 42.983C66.768 42.983 66.941 42.9415 67.0964 42.8621C67.2519 42.7827 67.385 42.6677 67.4844 42.5271C67.7242 42.2148 67.8537 41.8356 67.8537 41.4461C67.8537 41.0566 67.7242 40.6775 67.4844 40.3651C67.3838 40.2261 67.2503 40.1127 67.095 40.0344C66.9398 39.956 66.7674 39.9151 66.5924 39.9151C66.4174 39.9151 66.245 39.956 66.0897 40.0344C65.9344 40.1127 65.8009 40.2261 65.7004 40.3651C65.4606 40.6775 65.3311 41.0566 65.3311 41.4461C65.3311 41.8356 65.4606 42.2148 65.7004 42.5271Z" fill="#898989"/>
<path d="M73.0704 43.0364C73.0703 43.1587 73.113 43.2775 73.1914 43.3732C73.2189 43.4171 73.2566 43.4541 73.3014 43.4813C73.3463 43.5085 73.3971 43.5251 73.4498 43.5299V43.663H71.7223V43.5299C71.7739 43.5252 71.8236 43.5085 71.8671 43.4812C71.9107 43.4539 71.9468 43.4169 71.9725 43.3732C72.0448 43.2807 72.0844 43.1681 72.0855 43.052V40.6394C72.087 40.4563 72.0337 40.2767 71.9322 40.1224C71.8831 40.046 71.8137 39.9839 71.7313 39.9426C71.6489 39.9012 71.5566 39.8822 71.464 39.8874C71.2949 39.8859 71.1281 39.9263 70.9796 40.0049C70.8333 40.0812 70.7065 40.1882 70.6083 40.3182V43.0364C70.6077 43.1575 70.6474 43.2756 70.7213 43.3732C70.747 43.4169 70.7832 43.4539 70.8267 43.4812C70.8703 43.5085 70.92 43.5252 70.9716 43.5299V43.663H69.2683V43.5299C69.3203 43.5265 69.3706 43.5104 69.4143 43.483C69.4581 43.4556 69.494 43.4178 69.5186 43.3732C69.5915 43.2751 69.631 43.1573 69.6316 43.0364V40.1615C69.6327 40.0403 69.5931 39.922 69.5186 39.8247C69.4924 39.782 69.456 39.7462 69.4124 39.7203C69.3688 39.6943 69.3193 39.6791 69.2683 39.6759V39.5427L70.6164 39.1667V39.4879C70.7299 39.3819 70.864 39.2989 71.0109 39.2438C71.1578 39.1887 71.3146 39.1625 71.472 39.1667C71.6607 39.166 71.8484 39.1924 72.029 39.245C72.2105 39.3 72.382 39.3819 72.5376 39.4879C72.7074 39.6052 72.8413 39.7649 72.9251 39.95C73.0279 40.1685 73.0776 40.4071 73.0704 40.6472V43.0364Z" fill="#898989"/>
<path d="M77.0823 39.6054C77.2692 39.7329 77.4222 39.9017 77.5289 40.0977C77.6355 40.2938 77.6927 40.5117 77.6958 40.7333C77.6992 40.9767 77.6381 41.2168 77.5182 41.4305C77.4074 41.6325 77.2499 41.8067 77.0581 41.9397C76.8722 42.0668 76.6682 42.1671 76.4527 42.2373C76.2471 42.3044 76.0318 42.3388 75.8149 42.3392C75.0992 42.3392 74.7413 42.4358 74.7413 42.629C74.7413 42.8222 75.2472 42.9345 76.2589 42.9658C76.3987 42.9579 76.5389 42.9579 76.6787 42.9658C76.862 42.9904 77.0429 43.0297 77.2195 43.0833C77.4123 43.1381 77.5968 43.2171 77.7684 43.3183C77.9365 43.4212 78.0775 43.5606 78.1801 43.7257C78.2955 43.9095 78.3544 44.1215 78.3496 44.3367C78.3525 44.6133 78.2741 44.885 78.1236 45.12C77.9757 45.3504 77.7738 45.5437 77.5343 45.684C77.2831 45.8292 77.0111 45.9375 76.7271 46.0052C76.4479 46.077 76.1603 46.1139 75.8714 46.1148C75.3052 46.1321 74.7455 45.9936 74.257 45.7153C74.0558 45.6186 73.8857 45.4705 73.7648 45.2869C73.6439 45.1034 73.5768 44.8913 73.5708 44.6735C73.5612 44.558 73.5821 44.4419 73.6315 44.3364C73.6809 44.2308 73.7573 44.1393 73.8534 44.0703C74.0702 43.9373 74.3236 43.8718 74.5799 43.8823C74.4848 44.0804 74.4458 44.2994 74.4669 44.5169C74.4907 44.8191 74.6356 45.1003 74.8705 45.3002C75.023 45.4368 75.2025 45.542 75.3982 45.6093C75.5938 45.6766 75.8015 45.7047 76.0087 45.6919C76.2115 45.7043 76.4148 45.6768 76.6062 45.6108C76.7977 45.5448 76.9734 45.4418 77.1227 45.308C77.2359 45.2154 77.3292 45.102 77.3971 44.9743C77.465 44.8466 77.5061 44.7071 77.5182 44.5638C77.5054 44.4333 77.4607 44.3076 77.3877 44.1972C77.3146 44.0868 77.2155 43.995 77.0984 43.9294C76.7255 43.7347 76.3002 43.6554 75.8795 43.7022C74.5018 43.7022 73.813 43.4411 73.813 42.9188C73.8112 42.7891 73.8538 42.6623 73.9341 42.5585C74.0078 42.4585 74.1083 42.3799 74.2247 42.3313C74.3375 42.2844 74.4534 42.2452 74.5718 42.2138C74.6667 42.1867 74.764 42.1683 74.8624 42.159H74.9835H74.8705L74.6202 42.0337C74.4988 41.9681 74.3874 41.8863 74.2893 41.7908C74.1792 41.6767 74.0916 41.544 74.031 41.3992C73.9527 41.221 73.9141 41.0288 73.918 40.8352C73.9237 40.5099 74.0465 40.1967 74.2651 39.95C74.4559 39.7076 74.7093 39.5185 74.9996 39.4017C75.2686 39.2943 75.5564 39.2384 75.8472 39.2372C76.1536 39.2376 76.4564 39.3018 76.7352 39.4252C77.0255 39.313 77.3349 39.2545 77.6474 39.2528C77.7816 39.2407 77.9167 39.2407 78.051 39.2528C78.1421 39.2669 78.2315 39.2905 78.3173 39.3233H78.3981L78.0268 40.0048L77.8976 39.9265C77.8951 39.8777 77.8807 39.8302 77.8554 39.7879C77.8301 39.7457 77.7948 39.7099 77.7523 39.6837C77.654 39.6142 77.5348 39.5784 77.4133 39.5818L77.0823 39.6054ZM74.9189 40.8195C74.8973 41.0994 74.9804 41.3776 75.153 41.6028C75.2298 41.6923 75.3261 41.764 75.435 41.8128C75.544 41.8616 75.6627 41.8862 75.7827 41.8849C75.91 41.8945 76.0378 41.8746 76.1557 41.8269C76.2736 41.7793 76.3781 41.7052 76.4607 41.6107C76.6375 41.3871 76.7237 41.1084 76.7029 40.8273C76.7029 40.091 76.3988 39.7228 75.7907 39.7228C75.6695 39.7188 75.5491 39.743 75.4396 39.7935C75.33 39.8439 75.2345 39.9191 75.1611 40.0127C74.9894 40.2506 74.9042 40.5372 74.9189 40.8273V40.8195Z" fill="#898989"/>
<path d="M80.7229 40.9919C80.9528 41.1164 81.1449 41.2974 81.2799 41.5167C81.4759 41.7886 81.6513 42.0739 81.8046 42.3705C81.9463 42.646 82.1138 42.9082 82.3051 43.1539C82.488 43.3889 82.6522 43.5064 82.7975 43.5064V43.663H81.4091L81.3283 43.475L81.1104 43.0364C81.0028 42.8223 80.8951 42.6264 80.7875 42.4489C80.6757 42.2612 80.5517 42.0807 80.4162 41.9084C80.3082 41.7595 80.1776 41.6274 80.0287 41.5167V43.0364C80.0281 43.1575 80.0677 43.2756 80.1417 43.3732C80.1674 43.4169 80.2035 43.4539 80.2471 43.4812C80.2907 43.5085 80.3403 43.5252 80.3919 43.5299V43.663H78.6725V43.5299C78.7245 43.5265 78.7748 43.5104 78.8186 43.483C78.8624 43.4556 78.8982 43.4178 78.9228 43.3732C78.9958 43.2751 79.0353 43.1573 79.0358 43.0364V38.5792C79.0364 38.4605 78.9967 38.3448 78.9228 38.2502C78.8967 38.2075 78.8602 38.1717 78.8166 38.1458C78.773 38.1198 78.7236 38.1046 78.6725 38.1014V37.9682L80.0125 37.5765V40.5454L80.8198 39.2215H82.2163V39.3547C82.1238 39.3564 82.0329 39.3778 81.9499 39.4174C81.8614 39.4584 81.7775 39.5082 81.6997 39.5662C81.6102 39.6356 81.529 39.7144 81.4575 39.8012L81.2476 40.0675C81.1884 40.1459 81.1265 40.2425 81.0619 40.3574L80.9086 40.6159L80.7875 40.843L80.7229 40.9919Z" fill="#898989"/>
<path d="M83.0558 39.8403C83.2651 39.6299 83.5159 39.4626 83.7933 39.3483C84.0707 39.2341 84.3689 39.1752 84.6703 39.1752C84.9716 39.1752 85.2698 39.2341 85.5472 39.3483C85.8246 39.4626 86.0754 39.6299 86.2847 39.8403C86.7132 40.2557 86.9542 40.8192 86.9547 41.407C86.9591 41.7056 86.9021 42.0022 86.7871 42.2792C86.672 42.5563 86.5013 42.8083 86.2847 43.0206C86.0785 43.2361 85.8286 43.4079 85.5508 43.5254C85.2731 43.6429 84.9733 43.7035 84.6703 43.7035C84.3672 43.7035 84.0675 43.6429 83.7897 43.5254C83.5119 43.4079 83.2621 43.2361 83.0558 43.0206C82.8392 42.8083 82.6685 42.5563 82.5534 42.2792C82.4384 42.0022 82.3814 41.7056 82.3858 41.407C82.3863 40.8192 82.6273 40.2557 83.0558 39.8403ZM83.7823 42.5271C83.8817 42.6677 84.0148 42.7827 84.1702 42.8621C84.3256 42.9415 84.4986 42.983 84.6743 42.983C84.8499 42.983 85.023 42.9415 85.1784 42.8621C85.3338 42.7827 85.4669 42.6677 85.5663 42.5271C85.8061 42.2148 85.9356 41.8356 85.9356 41.4461C85.9356 41.0566 85.8061 40.6775 85.5663 40.3651C85.4658 40.2261 85.3322 40.1127 85.177 40.0344C85.0217 39.956 84.8493 39.9151 84.6743 39.9151C84.4993 39.9151 84.3269 39.956 84.1716 40.0344C84.0164 40.1127 83.8828 40.2261 83.7823 40.3651C83.5425 40.6775 83.413 41.0566 83.413 41.4461C83.413 41.8356 83.5425 42.2148 83.7823 42.5271Z" fill="#898989"/>
<path d="M89.5056 39.1667C89.6656 39.1666 89.8251 39.1823 89.9818 39.2137C90.0898 39.2306 90.1955 39.2595 90.2967 39.2999L90.3935 39.3469L89.9576 40.3652L89.8042 40.2555C89.8054 40.1847 89.7909 40.1145 89.7617 40.0496C89.7324 39.9847 89.6891 39.9267 89.6347 39.8795C89.5241 39.7767 89.3762 39.7204 89.223 39.7229C88.9962 39.7235 88.7787 39.8107 88.6176 39.9657V43.0442C88.617 43.1653 88.6567 43.2834 88.7306 43.381C88.7563 43.4247 88.7925 43.4618 88.836 43.489C88.8796 43.5163 88.9293 43.533 88.9809 43.5377V43.6709H87.2615V43.5377C87.3135 43.5343 87.3637 43.5182 87.4075 43.4908C87.4513 43.4634 87.4872 43.4256 87.5117 43.381C87.5847 43.2829 87.6242 43.1652 87.6247 43.0442V40.1537C87.6253 40.035 87.5856 39.9193 87.5117 39.8247C87.4856 39.782 87.4492 39.7462 87.4056 39.7202C87.362 39.6943 87.3125 39.6791 87.2615 39.6759V39.5427L88.6095 39.1432V39.386C88.882 39.2349 89.1919 39.1591 89.5056 39.1667Z" fill="#898989"/>
<path d="M94.5104 43.0364C94.5103 43.1587 94.553 43.2775 94.6314 43.3732C94.6589 43.4171 94.6966 43.4541 94.7414 43.4813C94.7863 43.5085 94.8371 43.5251 94.8898 43.5299V43.6631H93.1542V43.5299C93.2058 43.5252 93.2555 43.5085 93.2991 43.4812C93.3426 43.4539 93.3788 43.4169 93.4044 43.3732C93.4767 43.2807 93.5163 43.1681 93.5175 43.052V40.6394C93.5189 40.4563 93.4656 40.2767 93.3641 40.1224C93.315 40.046 93.2456 39.9839 93.1632 39.9426C93.0808 39.9012 92.9885 39.8822 92.8959 39.8874C92.7268 39.8859 92.5601 39.9263 92.4116 40.0049C92.2653 40.0812 92.1384 40.1882 92.0402 40.3182V43.0364C92.0396 43.1575 92.0793 43.2756 92.1532 43.3732C92.1789 43.4169 92.2151 43.4539 92.2586 43.4812C92.3022 43.5085 92.3519 43.5252 92.4035 43.5299V43.6631H90.6841V43.5299C90.7361 43.5265 90.7863 43.5104 90.8301 43.483C90.8739 43.4556 90.9098 43.4178 90.9343 43.3732C91.0073 43.2751 91.0468 43.1574 91.0473 43.0364V40.1615C91.0485 40.0403 91.0088 39.922 90.9343 39.8247C90.9082 39.7821 90.8718 39.7462 90.8282 39.7203C90.7846 39.6943 90.7351 39.6791 90.6841 39.6759V39.5427L92.0241 39.1667V39.4879C92.1414 39.378 92.2808 39.2928 92.4336 39.2376C92.5864 39.1823 92.7492 39.1582 92.912 39.1667C93.1007 39.166 93.2884 39.1924 93.469 39.245C93.6504 39.3 93.822 39.3819 93.9776 39.4879C94.1474 39.6052 94.2813 39.7649 94.3651 39.95C94.4679 40.1686 94.5176 40.4071 94.5104 40.6472V43.0364Z" fill="#898989"/>
<path d="M102.211 37.7175C102.16 37.7222 102.11 37.7389 102.066 37.7661C102.023 37.7934 101.987 37.8305 101.961 37.8741C101.886 37.9657 101.843 38.0784 101.84 38.1953V43.0363C101.838 43.1576 101.878 43.2761 101.953 43.3731C101.98 43.4154 102.016 43.4509 102.06 43.4767C102.103 43.5026 102.152 43.5181 102.203 43.522V43.663H100.855V43.005C100.375 43.4624 99.7282 43.7184 99.055 43.7178C98.8207 43.7208 98.588 43.681 98.3689 43.6003C98.1771 43.5299 98.0015 43.4234 97.8523 43.287C97.7168 43.1585 97.6024 43.0105 97.5132 42.8483C97.3498 42.5632 97.2637 42.2424 97.263 41.9161V38.1953C97.2567 38.0813 97.2145 37.9719 97.1419 37.882C97.1172 37.8368 97.0815 37.7982 97.0378 37.7696C96.9942 37.7409 96.944 37.723 96.8917 37.7175V37.6H98.6111V37.741C98.5595 37.7457 98.5098 37.7624 98.4662 37.7896C98.4227 37.8169 98.3865 37.854 98.3608 37.8976C98.2857 37.9892 98.2432 38.1019 98.2397 38.2188V41.924C98.2328 42.0126 98.2328 42.1017 98.2397 42.1903C98.2569 42.2876 98.2868 42.3823 98.3285 42.4723C98.3695 42.5713 98.4298 42.6618 98.5061 42.7386C98.5991 42.8206 98.7093 42.882 98.829 42.9188C98.9817 42.9722 99.143 42.9987 99.3053 42.9971C99.6119 42.9631 99.9078 42.8666 100.173 42.7141C100.439 42.5616 100.669 42.3564 100.847 42.112V38.1953C100.841 38.0813 100.799 37.9719 100.726 37.882C100.701 37.8368 100.666 37.7982 100.622 37.7696C100.578 37.7409 100.528 37.723 100.476 37.7175V37.6H102.195L102.211 37.7175Z" fill="#898989"/>
<path d="M106.328 43.0364C106.328 43.1587 106.371 43.2774 106.449 43.3732C106.477 43.417 106.514 43.4541 106.559 43.4813C106.604 43.5085 106.655 43.5251 106.708 43.5299V43.663H104.94V43.5299C104.991 43.5251 105.041 43.5085 105.085 43.4812C105.128 43.4539 105.164 43.4169 105.19 43.3732C105.262 43.2807 105.302 43.1681 105.303 43.052V40.6394C105.304 40.4563 105.251 40.2767 105.15 40.1224C105.101 40.046 105.031 39.9839 104.949 39.9426C104.866 39.9012 104.774 39.8821 104.681 39.8874C104.512 39.8858 104.346 39.9263 104.197 40.0049C104.051 40.0811 103.924 40.1882 103.826 40.3182V43.0364C103.825 43.1575 103.865 43.2756 103.939 43.3732C103.964 43.4169 104.001 43.4539 104.044 43.4812C104.088 43.5085 104.137 43.5251 104.189 43.5299V43.663H102.518V43.5299C102.57 43.5265 102.62 43.5104 102.664 43.483C102.708 43.4556 102.744 43.4178 102.768 43.3732C102.841 43.2751 102.881 43.1573 102.881 43.0364V40.1615C102.882 40.0403 102.843 39.922 102.768 39.8247C102.742 39.782 102.706 39.7462 102.662 39.7202C102.619 39.6943 102.569 39.6791 102.518 39.6759V39.5427L103.866 39.1432V39.4644C103.982 39.3626 104.117 39.2839 104.263 39.2329C104.41 39.1818 104.566 39.1593 104.722 39.1667C104.91 39.1661 105.098 39.1925 105.279 39.245C105.46 39.3 105.632 39.3819 105.787 39.4879C105.957 39.6051 106.091 39.7648 106.175 39.95C106.278 40.1685 106.327 40.4071 106.32 40.6472L106.328 43.0364Z" fill="#898989"/>
<path d="M108.37 43.0363C108.369 43.1576 108.408 43.2761 108.483 43.3732C108.51 43.4154 108.547 43.4509 108.59 43.4768C108.634 43.5026 108.683 43.5181 108.734 43.522V43.663H107.014V43.522C107.066 43.518 107.116 43.5015 107.16 43.4742C107.203 43.4469 107.239 43.4095 107.265 43.3653C107.337 43.2699 107.376 43.1548 107.378 43.0363V40.1772C107.378 40.0584 107.338 39.9428 107.265 39.8482C107.238 39.8055 107.202 39.7697 107.158 39.7437C107.115 39.7178 107.065 39.7026 107.014 39.6993V39.5662L108.362 39.1667L108.37 43.0363ZM107.563 38.5948C107.516 38.5516 107.478 38.4994 107.452 38.4415C107.426 38.3836 107.413 38.3211 107.413 38.258C107.413 38.1949 107.426 38.1324 107.452 38.0745C107.478 38.0166 107.516 37.9644 107.563 37.9212C107.608 37.8764 107.663 37.8408 107.722 37.8166C107.782 37.7924 107.846 37.78 107.91 37.7802C107.974 37.7797 108.037 37.792 108.095 37.8163C108.153 37.8405 108.206 37.8762 108.249 37.9212C108.341 38.0107 108.393 38.1318 108.393 38.258C108.393 38.3842 108.341 38.5053 108.249 38.5948C108.206 38.6398 108.153 38.6755 108.095 38.6997C108.037 38.724 107.974 38.7363 107.91 38.7358C107.842 38.7393 107.773 38.7284 107.709 38.7041C107.645 38.6798 107.587 38.6426 107.539 38.5948H107.563Z" fill="#898989"/>
<path d="M109.379 39.6681C109.346 39.5779 109.28 39.5027 109.194 39.4566C109.112 39.4035 109.017 39.3737 108.919 39.3704V39.2216H110.534V39.3704C110.504 39.3695 110.474 39.3746 110.446 39.3854C110.419 39.3962 110.393 39.4124 110.372 39.4331C110.352 39.4511 110.336 39.4729 110.325 39.4971C110.314 39.5214 110.308 39.5475 110.308 39.5741C110.308 39.6889 110.547 40.5271 111.026 42.0886C111.505 40.5219 111.745 39.6837 111.745 39.5741C111.745 39.4644 111.672 39.3965 111.527 39.3704V39.2216H113.141V39.3704C113.041 39.373 112.943 39.4029 112.859 39.4566C112.772 39.5027 112.706 39.5779 112.673 39.6681L112.35 40.7334L111.777 42.7152L111.494 43.6787H110.59C110.59 43.6787 110.493 43.3497 110.308 42.7152L109.686 40.7334L109.379 39.6681Z" fill="#898989"/>
<path d="M115.361 43.0834C115.623 43.0826 115.883 43.0348 116.128 42.9424C116.33 42.8749 116.523 42.7827 116.701 42.6682C116.83 42.5742 116.978 42.4593 117.145 42.3235L117.46 42.5977L117.379 42.723C117.305 42.8193 117.224 42.9109 117.137 42.9972C116.866 43.2899 116.517 43.5041 116.128 43.616C115.868 43.7019 115.595 43.7443 115.321 43.7414C115.008 43.7503 114.698 43.6957 114.408 43.5811C114.119 43.4664 113.858 43.2942 113.642 43.0755C113.217 42.6393 112.98 42.0619 112.98 41.4619C112.98 40.8618 113.217 40.2844 113.642 39.8482C113.847 39.6319 114.097 39.4596 114.375 39.3422C114.653 39.2249 114.953 39.1651 115.256 39.1667C115.491 39.1638 115.725 39.1955 115.95 39.2607C116.144 39.3147 116.326 39.3994 116.491 39.5114C116.635 39.6123 116.768 39.7279 116.887 39.856C116.994 39.9722 117.087 40.1012 117.161 40.2399C117.226 40.3652 117.282 40.4801 117.331 40.5845C117.368 40.6655 117.397 40.7493 117.419 40.8352V40.9292C116.229 41.1538 115.086 41.5695 114.037 42.159C114.14 42.4157 114.31 42.6423 114.53 42.817C114.76 43.0076 115.059 43.1031 115.361 43.0834ZM115.313 39.95C115.127 39.9463 114.944 39.984 114.776 40.06C114.608 40.1361 114.46 40.2485 114.344 40.3887C114.084 40.6973 113.949 41.0872 113.965 41.4854V41.5167C114.341 41.3052 114.736 41.1244 115.143 40.9762C115.543 40.8221 115.957 40.7015 116.378 40.6159C116.312 40.4253 116.185 40.2604 116.015 40.1459C115.809 40.008 115.562 39.9392 115.313 39.95Z" fill="#898989"/>
<path d="M120.132 39.1667C120.292 39.1666 120.451 39.1823 120.608 39.2137C120.716 39.2306 120.822 39.2595 120.923 39.2999L121.02 39.3469L120.584 40.3652L120.43 40.2555C120.432 40.1847 120.417 40.1145 120.388 40.0496C120.359 39.9847 120.315 39.9267 120.261 39.8795C120.15 39.7767 120.002 39.7204 119.849 39.7229C119.622 39.7235 119.405 39.8107 119.244 39.9657V43.0442C119.243 43.1653 119.283 43.2834 119.357 43.381C119.383 43.4247 119.419 43.4618 119.462 43.489C119.506 43.5163 119.555 43.533 119.607 43.5377V43.6709H117.888V43.5377C117.94 43.5343 117.99 43.5182 118.034 43.4908C118.078 43.4634 118.113 43.4256 118.138 43.381C118.211 43.2829 118.25 43.1652 118.251 43.0442V40.1537C118.252 40.035 118.212 39.9193 118.138 39.8247C118.112 39.782 118.075 39.7462 118.032 39.7202C117.988 39.6943 117.939 39.6791 117.888 39.6759V39.5427L119.236 39.1432V39.386C119.508 39.2353 119.818 39.1595 120.132 39.1667Z" fill="#898989"/>
<path d="M122.868 39.1667C123.11 39.1671 123.35 39.2068 123.579 39.2842C123.76 39.3387 123.934 39.415 124.095 39.5114L124.257 39.6289L123.821 40.4122L123.619 40.326C123.616 40.2922 123.616 40.2581 123.619 40.2242C123.615 40.1669 123.595 40.1117 123.563 40.0637C123.53 40.0157 123.486 39.9766 123.433 39.95C123.278 39.8589 123.098 39.8152 122.917 39.8247C122.459 39.8247 122.231 40.0127 122.231 40.3887C122.23 40.4356 122.24 40.482 122.261 40.5242C122.282 40.5664 122.313 40.6032 122.352 40.6315C122.446 40.7024 122.552 40.7555 122.666 40.7882L123.094 40.9057C123.257 40.9458 123.416 40.9982 123.571 41.0624C123.723 41.1257 123.867 41.2072 123.998 41.3052C124.136 41.4143 124.244 41.5541 124.313 41.7125C124.398 41.9054 124.44 42.1138 124.434 42.3235C124.437 42.5071 124.389 42.6881 124.297 42.8484C124.213 42.998 124.098 43.1288 123.958 43.2322C123.823 43.3292 123.677 43.4107 123.522 43.475C123.384 43.5351 123.241 43.5823 123.094 43.616C122.988 43.64 122.88 43.6532 122.771 43.6552C122.464 43.6597 122.157 43.6228 121.859 43.5455C121.658 43.5011 121.466 43.4215 121.294 43.3105L121.133 43.2009L121.569 42.3157L121.706 42.3784C121.712 42.4775 121.712 42.5769 121.706 42.676C121.706 42.723 121.741 42.7726 121.811 42.8249C121.912 42.89 122.024 42.9376 122.142 42.9659C122.299 43.009 122.462 43.0301 122.626 43.0285C122.847 43.0447 123.065 42.9805 123.24 42.8484C123.301 42.7998 123.351 42.739 123.386 42.67C123.42 42.6011 123.439 42.5256 123.441 42.4489C123.443 42.3676 123.424 42.2872 123.386 42.2148C123.348 42.1423 123.292 42.0801 123.223 42.0337C123.061 41.9202 122.882 41.8329 122.691 41.7752C122.481 41.7073 122.274 41.629 122.069 41.5402C121.855 41.4493 121.671 41.3029 121.536 41.1172C121.376 40.8868 121.3 40.6112 121.318 40.3339C121.318 40.1602 121.362 39.9891 121.447 39.836C121.531 39.6828 121.654 39.5525 121.803 39.4565C122.115 39.247 122.49 39.1449 122.868 39.1667Z" fill="#898989"/>
<path d="M126.089 43.0363C126.087 43.1576 126.127 43.2761 126.202 43.3732C126.229 43.4154 126.265 43.4509 126.309 43.4768C126.352 43.5026 126.402 43.5181 126.452 43.522V43.663H124.733V43.522C124.785 43.518 124.835 43.5015 124.878 43.4742C124.922 43.4469 124.958 43.4095 124.983 43.3653C125.056 43.2699 125.095 43.1548 125.096 43.0363V40.1772C125.097 40.0584 125.057 39.9428 124.983 39.8482C124.957 39.8055 124.921 39.7697 124.877 39.7437C124.834 39.7178 124.784 39.7026 124.733 39.6993V39.5662L126.089 39.1667V43.0363ZM125.282 38.5948C125.235 38.5516 125.197 38.4994 125.171 38.4415C125.145 38.3836 125.132 38.3211 125.132 38.258C125.132 38.1949 125.145 38.1324 125.171 38.0745C125.197 38.0166 125.235 37.9644 125.282 37.9212C125.327 37.8764 125.381 37.8408 125.441 37.8166C125.5 37.7924 125.564 37.78 125.629 37.7802C125.693 37.7797 125.755 37.792 125.814 37.8163C125.872 37.8405 125.925 37.8762 125.968 37.9212C126.06 38.0107 126.111 38.1318 126.111 38.258C126.111 38.3842 126.06 38.5053 125.968 38.5948C125.925 38.6398 125.872 38.6755 125.814 38.6997C125.755 38.724 125.693 38.7363 125.629 38.7358C125.56 38.7393 125.492 38.7284 125.428 38.7041C125.364 38.6798 125.306 38.6426 125.258 38.5948H125.282Z" fill="#898989"/>
<path d="M126.541 39.95L126.816 39.245C126.974 39.2438 127.128 39.1975 127.26 39.1118C127.385 39.0309 127.488 38.9204 127.558 38.7906C127.625 38.6697 127.681 38.544 127.728 38.4146C127.766 38.3106 127.793 38.203 127.809 38.0935V37.9681H128.349V39.2371H129.342L129.116 39.9421H128.309V42.3783C128.309 42.8692 128.624 43.1146 129.253 43.1146V43.663H128.575C128.411 43.6661 128.248 43.6373 128.095 43.578C127.943 43.5188 127.804 43.4305 127.687 43.3183C127.568 43.209 127.473 43.0766 127.409 42.9295C127.345 42.7825 127.313 42.6241 127.316 42.4645V39.95H126.541Z" fill="#898989"/>
<path d="M131.74 42.0572C132.219 40.4906 132.458 39.6602 132.458 39.5662C132.459 39.5402 132.455 39.5142 132.445 39.49C132.435 39.4657 132.421 39.4436 132.402 39.4252C132.38 39.4056 132.355 39.3906 132.327 39.3811C132.299 39.3717 132.27 39.368 132.24 39.3704V39.2216H133.855V39.3704C133.757 39.3737 133.662 39.4035 133.58 39.4566C133.494 39.5027 133.428 39.5779 133.395 39.6681C133.395 39.6681 133.273 40.1067 133.023 40.9449L132.281 43.4751C132.028 44.3211 131.88 44.8093 131.837 44.9399C131.786 45.1197 131.698 45.2876 131.578 45.4334C131.467 45.5597 131.337 45.6681 131.191 45.7546C131.066 45.8245 130.936 45.8873 130.803 45.9426C130.702 45.9873 130.597 46.0214 130.489 46.0444H130.376V45.7311L130.472 45.6606C130.544 45.5968 130.609 45.5259 130.666 45.4491C130.753 45.3431 130.821 45.224 130.868 45.0966C130.959 44.8302 131.105 44.3524 131.304 43.6631C131.304 43.6631 130.908 42.3236 130.125 39.6681C130.093 39.5795 130.031 39.5047 129.948 39.4566C129.867 39.4027 129.771 39.3728 129.673 39.3704V39.2216H131.288V39.3704C131.258 39.368 131.229 39.3717 131.201 39.3811C131.173 39.3906 131.148 39.4056 131.126 39.4252C131.107 39.4436 131.092 39.4657 131.083 39.49C131.073 39.5142 131.069 39.5402 131.07 39.5662C131.117 39.7961 131.176 40.0236 131.247 40.2477C131.366 40.6655 131.484 41.0728 131.602 41.4697L131.74 42.0572Z" fill="#898989"/>
<path d="M14.5301 12.4629L6.10266 31.2629V33.3387L7.61218 31.7721L14.7642 12.5334L14.5301 12.4629Z" fill="#DE5C8E"/>
<path d="M13.8924 12.1495L4.49625 28.2L4.03613 30.4717L5.73939 28.905L14.1426 12.2984L13.8924 12.1495Z" fill="#DE5C8E"/>
<path d="M13.4162 11.7892L3.18049 24.4244L2.26025 26.837L4.31869 25.5132L13.5857 11.9302L13.4162 11.7892Z" fill="#DE5C8E"/>
<path d="M12.9157 11.28L2.28446 20.774L1.47723 22.7794L3.22892 22.1135L13.1336 11.5072L12.9157 11.28Z" fill="#DE5C8E"/>
<path d="M12.5928 10.7395L2.4217 16.8417L1.3158 18.4083L2.93025 18.1577L12.7784 11.0293C12.6977 10.9667 12.6412 10.8335 12.5928 10.7395Z" fill="#DE5C8E"/>
<path d="M12.3506 10.1833L2.88986 13.6535L1.61444 14.8833L3.42263 14.7893L12.4717 10.4183C12.4152 10.3478 12.3829 10.2538 12.3506 10.1833Z" fill="#DE5C8E"/>
<path d="M12.2134 9.52539L3.86663 10.8336L2.42169 11.6874L4.03615 11.9851L12.2457 9.79172C12.2376 9.70556 12.2215 9.61939 12.2134 9.52539Z" fill="#DE5C8E"/>
<path d="M4.71423 8.54614L3.61639 8.96914L4.71423 9.39998L12.1811 9.07881C12.1811 9.00048 12.1811 8.92214 12.1811 8.85164L4.71423 8.54614Z" fill="#DE5C8E"/>
<path d="M4.8999 7.19889L6.04617 7.82556L12.2538 8.46006C12.2538 8.36606 12.2538 8.27206 12.3183 8.18589L6.25605 6.90906L4.8999 7.19889Z" fill="#DE5C8E"/>
<path d="M7.56373 5.40503H6.14301L7.20855 6.2667L12.4555 7.83336L12.5524 7.61403L7.56373 5.40503Z" fill="#DE5C8E"/>
<path d="M8.67772 4.09685L7.70905 4.03418L8.18531 4.81751L12.7946 7.12835L12.9157 6.97168L8.67772 4.09685Z" fill="#DE5C8E"/>
<path d="M10.1227 3.13327L9.15399 2.91394L9.43652 3.79911L13.2063 6.63477L13.3758 6.47027L10.1227 3.13327Z" fill="#DE5C8E"/>
<path d="M13.7229 6.17266L13.9409 6.03166L11.5192 2.20899L10.607 1.79382L10.7442 2.77299L13.7229 6.17266Z" fill="#DE5C8E"/>
<path d="M14.635 5.71048L13.0206 1.45698L12.2134 0.924316L12.1326 1.85648L14.3848 5.77315L14.635 5.71048Z" fill="#DE5C8E"/>
<path d="M15.1436 5.55385L15.41 5.48335L14.74 1.04185L14.07 0.360352L13.8278 1.28468L15.1436 5.55385Z" fill="#DE5C8E"/>
<path d="M16.08 5.44417H16.2172L16.5401 0.830333L16.08 0L15.6199 0.783333L15.9508 5.48333L16.08 5.44417Z" fill="#DE5C8E"/>
<path d="M17.6783 12.4629L17.4039 12.5726L24.5963 31.7172L26.1058 33.2839V31.2316L17.6783 12.4629Z" fill="#DE5C8E"/>
<path d="M18.2756 12.1495L18.0254 12.2984L26.3964 28.8972L28.0996 30.4639L27.6718 28.2L18.2756 12.1495Z" fill="#DE5C8E"/>
<path d="M18.7519 11.7892L18.5824 11.9302L27.8494 25.5132L29.8675 26.837L28.9553 24.4244L18.7519 11.7892Z" fill="#DE5C8E"/>
<path d="M28.9715 22.1135L30.6828 22.7794L29.8756 20.774L19.2363 11.28L19.0345 11.5072L28.9715 22.1135Z" fill="#DE5C8E"/>
<path d="M29.2621 18.142L30.8765 18.3927L29.7706 16.826L19.5753 10.7395C19.5269 10.8335 19.4704 10.9275 19.4139 11.0137L29.2621 18.142Z" fill="#DE5C8E"/>
<path d="M28.7696 14.805L30.5778 14.899L29.2701 13.6535L19.8174 10.1833C19.8174 10.2852 19.7529 10.3713 19.7206 10.4575L28.7696 14.805Z" fill="#DE5C8E"/>
<path d="M29.706 11.6874L28.3014 10.8336L19.9547 9.52539C19.9547 9.61939 19.9547 9.70556 19.9143 9.79172L28.1238 11.9851L29.706 11.6874Z" fill="#DE5C8E"/>
<path d="M27.4458 9.39998L28.5517 8.95348L27.4458 8.54614L19.9628 8.86731C19.9628 8.94564 19.9628 9.02398 19.9628 9.09448L27.4458 9.39998Z" fill="#DE5C8E"/>
<path d="M25.912 6.90906L19.8497 8.18589C19.8497 8.27206 19.8901 8.35822 19.9143 8.46006L26.1219 7.83339L27.2682 7.20672L25.912 6.90906Z" fill="#DE5C8E"/>
<path d="M24.6043 5.40503L19.6157 7.5592L19.7125 7.77853L24.9595 6.21186L26.017 5.40503H24.6043Z" fill="#DE5C8E"/>
<path d="M23.4903 4.09686L19.2443 6.9717L19.3816 7.1597L23.9908 4.8567L24.4671 4.07336L23.4903 4.09686Z" fill="#DE5C8E"/>
<path d="M22.0454 3.13329L18.8165 6.46246L18.986 6.62696L22.7558 3.79129L23.0383 2.90613L22.0454 3.13329Z" fill="#DE5C8E"/>
<path d="M18.421 6.17268L21.4319 2.76518L21.5691 1.78601L20.657 2.20118L18.2353 6.02384L18.421 6.17268Z" fill="#DE5C8E"/>
<path d="M17.533 5.71054L17.759 5.79671L20.0112 1.88004L19.9305 0.947876L19.1233 1.48054L17.533 5.71054Z" fill="#DE5C8E"/>
<path d="M17.0244 5.55385L18.3402 1.28468L18.0981 0.360352L17.4361 1.05752L16.7581 5.48335L17.0244 5.55385Z" fill="#DE5C8E"/>
<path d="M13.7794 37.7097C14.1416 37.4549 14.4673 37.1546 14.7481 36.8167C14.5765 36.6117 14.4576 36.37 14.401 36.1117C14.2476 36.2449 14.07 36.3859 13.8763 36.5269C13.8521 36.5453 13.8223 36.5553 13.7915 36.5553C13.7608 36.5553 13.7309 36.5453 13.7068 36.5269C13.513 36.3859 13.3435 36.2527 13.1821 36.1117C13.1255 36.37 13.0065 36.6117 12.835 36.8167C13.1084 37.153 13.4259 37.4532 13.7794 37.7097Z" fill="#DE5C8E"/>
<path d="M8.0723 36.6757C8.3708 37.0739 8.73329 37.423 9.14591 37.7097C9.52507 37.4581 9.86724 37.1577 10.163 36.8167C9.99145 36.6117 9.87248 36.37 9.81591 36.1117C9.66254 36.2449 9.48495 36.3859 9.29121 36.5269C9.26704 36.5453 9.23719 36.5553 9.20646 36.5553C9.17572 36.5553 9.14587 36.5453 9.1217 36.5269C8.92796 36.3859 8.75037 36.2527 8.597 36.1117C8.43556 36.2952 8.24143 36.4491 8.02386 36.566L8.09652 36.66L8.0723 36.6757Z" fill="#DE5C8E"/>
<path d="M12.9156 36.0333C12.9163 35.9677 12.8997 35.903 12.8672 35.8453H12.4394C12.4069 35.903 12.3903 35.9677 12.391 36.0333C12.4289 36.2379 12.5206 36.4295 12.6573 36.5895C12.7911 36.4287 12.8801 36.2371 12.9156 36.0333Z" fill="#DE5C8E"/>
<path d="M15.1921 36.0333C15.1928 35.9677 15.1761 35.903 15.1436 35.8453H14.7158C14.6834 35.903 14.6667 35.9677 14.6674 36.0333C14.7053 36.2379 14.7971 36.4295 14.9338 36.5895C15.0676 36.4287 15.1565 36.2371 15.1921 36.0333Z" fill="#DE5C8E"/>
<path d="M10.5989 36.0333C10.5996 35.9677 10.583 35.903 10.5505 35.8453H10.1227C10.0902 35.903 10.0735 35.9677 10.0742 36.0333C10.1122 36.2379 10.2039 36.4295 10.3406 36.5895C10.4744 36.4287 10.5634 36.2371 10.5989 36.0333Z" fill="#DE5C8E"/>
<path d="M11.4788 37.7097C11.8437 37.4554 12.1722 37.1551 12.4555 36.8167C12.284 36.6117 12.165 36.3701 12.1084 36.1117C11.9228 36.2762 11.7371 36.4094 11.5837 36.519C11.5595 36.5375 11.5297 36.5475 11.499 36.5475C11.4682 36.5475 11.4384 36.5375 11.4142 36.519C11.2205 36.378 11.0509 36.2449 10.8895 36.1039C10.82 36.3694 10.6841 36.6142 10.494 36.8167C10.7797 37.1557 11.1109 37.456 11.4788 37.7097Z" fill="#DE5C8E"/>
<path d="M16.0719 37.7097C16.4369 37.4554 16.7653 37.1551 17.0487 36.8167C16.8771 36.6117 16.7582 36.3701 16.7016 36.1117C16.5159 36.2762 16.3303 36.4094 16.1769 36.519C16.1527 36.5375 16.1229 36.5475 16.0921 36.5475C16.0614 36.5475 16.0315 36.5375 16.0074 36.519C15.8136 36.378 15.6441 36.2449 15.4827 36.1039C15.4261 36.3622 15.3071 36.6039 15.1356 36.8089C15.4059 37.1475 15.7207 37.4503 16.0719 37.7097Z" fill="#DE5C8E"/>
<path d="M22.9576 37.7097C23.3702 37.423 23.7327 37.0739 24.0312 36.6757V36.6287L24.1038 36.519C23.8881 36.4028 23.6965 36.2488 23.5388 36.0647C23.3773 36.2057 23.1997 36.3467 22.9979 36.4877C22.9738 36.5061 22.9439 36.5161 22.9132 36.5161C22.8824 36.5161 22.8526 36.5061 22.8284 36.4877C22.675 36.378 22.4894 36.237 22.3037 36.0804C22.2471 36.3387 22.1282 36.5803 21.9566 36.7854C22.2452 37.1364 22.582 37.4474 22.9576 37.7097Z" fill="#DE5C8E"/>
<path d="M22.0777 36.0333C22.0784 35.9677 22.0617 35.903 22.0293 35.8453H21.6014C21.569 35.903 21.5523 35.9677 21.553 36.0333C21.5909 36.2379 21.6827 36.4295 21.8194 36.5895C21.9532 36.4287 22.0421 36.2371 22.0777 36.0333Z" fill="#DE5C8E"/>
<path d="M25.2986 36.989L24.7577 36.8166C24.7577 36.8166 24.5721 36.7383 24.3945 36.6443L24.3057 36.7696V36.8166C23.9639 37.2648 23.5495 37.6564 23.0787 37.976C23.0545 37.9944 23.0247 38.0044 22.9939 38.0044C22.9632 38.0044 22.9334 37.9944 22.9092 37.976C22.498 37.7101 22.1236 37.3942 21.7952 37.036C21.4878 37.3957 21.1353 37.7167 20.7458 37.9916C20.7216 38.01 20.6918 38.0201 20.6611 38.0201C20.6303 38.0201 20.6005 38.01 20.5763 37.9916C20.1812 37.7178 19.8232 37.3967 19.5107 37.036C19.1983 37.3967 18.8403 37.7178 18.4452 37.9916C18.421 38.01 18.3912 38.0201 18.3604 38.0201C18.3297 38.0201 18.2999 38.01 18.2757 37.9916C17.8806 37.7178 17.5225 37.3967 17.2101 37.036C16.8977 37.3967 16.5397 37.7178 16.1446 37.9916C16.1204 38.01 16.0906 38.0201 16.0598 38.0201C16.0291 38.0201 15.9993 38.01 15.9751 37.9916C15.5799 37.7178 15.2219 37.3967 14.9095 37.036C14.5971 37.3967 14.2391 37.7178 13.844 37.9916C13.8198 38.01 13.79 38.0201 13.7592 38.0201C13.7285 38.0201 13.6987 38.01 13.6745 37.9916C13.2793 37.7178 12.9213 37.3967 12.6089 37.036C12.2965 37.3967 11.9385 37.7178 11.5434 37.9916C11.5192 38.01 11.4894 38.0201 11.4586 38.0201C11.4279 38.0201 11.3981 38.01 11.3739 37.9916C10.9787 37.7178 10.6207 37.3967 10.3083 37.036C9.99594 37.3967 9.63794 37.7178 9.2428 37.9916C9.21862 38.01 9.18878 38.0201 9.15804 38.0201C9.1273 38.0201 9.09745 38.01 9.07328 37.9916C8.61268 37.6647 8.20929 37.2679 7.87858 36.8166V36.7696L7.79786 36.6521C7.59605 36.754 7.44268 36.8245 7.44268 36.8245L6.91798 36.9811C4.81111 37.6783 3.55183 38.6418 3.22894 39.8011H29.0038C28.6405 38.6418 27.3893 37.6783 25.2986 36.989Z" fill="#DE5C8E"/>
<path d="M17.4846 36.0333C17.4852 35.9677 17.4686 35.903 17.4361 35.8453H17.0083C16.973 35.9022 16.9535 35.967 16.9518 36.0333C16.9897 36.2379 17.0815 36.4295 17.2182 36.5895C17.3549 36.4295 17.4466 36.2379 17.4846 36.0333Z" fill="#DE5C8E"/>
<path d="M18.3726 37.7097C18.7461 37.4571 19.0828 37.1567 19.3735 36.8167C19.2019 36.6117 19.083 36.37 19.0264 36.1117C18.873 36.2449 18.6954 36.3859 18.5017 36.5269C18.4775 36.5453 18.4477 36.5553 18.417 36.5553C18.3862 36.5553 18.3564 36.5453 18.3322 36.5269C18.1385 36.3859 17.9689 36.2527 17.8075 36.1117C17.7509 36.37 17.632 36.6117 17.4604 36.8167C17.7238 37.151 18.0304 37.4511 18.3726 37.7097Z" fill="#DE5C8E"/>
<path d="M19.7852 36.0333C19.7858 35.9677 19.7692 35.903 19.7367 35.8453H19.3089C19.2764 35.903 19.2598 35.9677 19.2605 36.0333C19.2984 36.2379 19.3902 36.4295 19.5268 36.5895C19.6606 36.4287 19.7496 36.2371 19.7852 36.0333Z" fill="#DE5C8E"/>
<path d="M20.6651 37.7097C21.03 37.4553 21.3585 37.1551 21.6418 36.8167C21.4703 36.6117 21.3513 36.37 21.2947 36.1117C21.1413 36.2449 20.9638 36.3859 20.77 36.5269C20.7458 36.5453 20.716 36.5553 20.6853 36.5553C20.6545 36.5553 20.6247 36.5453 20.6005 36.5269C20.4068 36.3859 20.2373 36.2527 20.0758 36.1117C20.0192 36.37 19.9003 36.6117 19.7287 36.8167C19.9996 37.1525 20.3144 37.4527 20.6651 37.7097Z" fill="#DE5C8E"/>
<path d="M6.86955 44.0781C9.85604 44.9274 12.961 45.3186 16.072 45.2374C19.1856 45.3194 22.2934 44.9283 25.2824 44.0781C27.3893 43.3809 28.6486 42.4409 28.9715 41.2816H3.22894C3.52762 42.4331 4.77882 43.3888 6.86955 44.0781Z" fill="#DE5C8E"/>
<path d="M3.11591 40.89C3.0897 40.695 3.0897 40.4975 3.11591 40.3025H29.0602C29.0865 40.4975 29.0865 40.695 29.0602 40.89H3.11591Z" fill="#DE5C8E"/>
<path d="M1.30773 38.1875C1.55583 38.2092 1.79016 38.3078 1.97619 38.4686C2.16222 38.6293 2.2901 38.8438 2.34098 39.0805C2.42665 39.3686 2.40376 39.6768 2.27641 39.95C2.22418 40.0628 2.14732 40.1633 2.05115 40.2444C1.95498 40.3256 1.8418 40.3855 1.71942 40.42C1.64976 40.4288 1.5792 40.4288 1.50954 40.42C1.26685 40.4006 1.03657 40.3078 0.851175 40.1546C0.665783 40.0014 0.534651 39.7956 0.476285 39.5662C0.391143 39.2747 0.416932 38.9633 0.548936 38.6888C0.601161 38.576 0.678017 38.4756 0.774187 38.3944C0.870357 38.3133 0.983546 38.2533 1.10592 38.2188C1.17559 38.21 1.24614 38.21 1.3158 38.2188M1.3158 37.8037C1.20955 37.8033 1.10372 37.8165 1.00098 37.8428C0.62931 37.9694 0.323343 38.2319 0.148394 38.5744C-0.0265544 38.9169 -0.056626 39.3121 0.0645987 39.6758C0.143832 39.9982 0.326397 40.2879 0.586037 40.5033C0.845676 40.7187 1.16901 40.8486 1.50954 40.8743C1.61579 40.8746 1.72163 40.8615 1.82436 40.8352C2.2002 40.7072 2.50867 40.4402 2.68256 40.0924C2.85645 39.7447 2.88165 39.3444 2.75267 38.9787C2.67344 38.6562 2.49087 38.3665 2.23123 38.1512C1.97159 37.9358 1.64826 37.8059 1.30773 37.7802L1.3158 37.8037Z" fill="#DE5C8E"/>
<path d="M2.13111 40.8665C2.1737 40.8578 2.21767 40.8578 2.26026 40.8665C2.3329 40.9096 2.39364 40.9692 2.43724 41.0401C2.48083 41.1111 2.50598 41.1913 2.5105 41.2738C2.54734 41.5795 2.49416 41.8892 2.35713 42.1668C2.28164 42.3633 2.15623 42.5381 1.99253 42.6751C1.82884 42.812 1.63217 42.9066 1.42075 42.9501C1.37816 42.9588 1.33418 42.9588 1.29159 42.9501C1.21895 42.907 1.15821 42.8474 1.11462 42.7765C1.07102 42.7055 1.04587 42.6253 1.04135 42.5428C1.00451 42.237 1.05769 41.9274 1.19472 41.6498C1.27022 41.4533 1.39562 41.2784 1.55932 41.1415C1.72301 41.0046 1.91969 40.91 2.13111 40.8665ZM2.13111 40.4513C1.83134 40.4949 1.54956 40.6172 1.31623 40.805C1.0829 40.9927 0.906901 41.2388 0.807251 41.5166C0.443998 42.3 0.581227 43.1303 1.114 43.3653C1.21041 43.4074 1.31504 43.4287 1.42075 43.428C1.71959 43.385 2.00072 43.2639 2.23397 43.0776C2.46721 42.8912 2.64374 42.6468 2.7446 42.3705C3.10785 41.5871 2.97062 40.7568 2.43785 40.5218C2.34144 40.4797 2.23681 40.4584 2.13111 40.4591V40.4513Z" fill="#DE5C8E"/>
<path d="M2.0665 41.3209C2.47666 41.3209 2.80915 40.9982 2.80915 40.6002C2.80915 40.2022 2.47666 39.8795 2.0665 39.8795C1.65635 39.8795 1.32385 40.2022 1.32385 40.6002C1.32385 40.9982 1.65635 41.3209 2.0665 41.3209Z" fill="#DE5C8E"/>
<path d="M2.94641 41.595H2.66388V43.8353H2.94641V41.595Z" fill="#DE5C8E"/>
<path d="M3.51142 44.2427C3.55288 44.2005 3.576 44.1444 3.576 44.086C3.57431 44.0379 3.5574 43.9914 3.52757 43.9529L2.80106 43.0834L2.08263 43.9685C2.04769 44.0109 2.02786 44.0631 2.02612 44.1174C2.02612 44.1757 2.04925 44.2318 2.0907 44.274L3.51142 44.2427Z" fill="#DE5C8E"/>
<path d="M3.576 44.0625H2.02612V47H3.576V44.0625Z" fill="#DE5C8E"/>
<path d="M30.8604 38.1875C30.93 38.1787 31.0006 38.1787 31.0703 38.1875C31.1926 38.2221 31.3058 38.282 31.402 38.3631C31.4982 38.4443 31.575 38.5447 31.6272 38.6575C31.7592 38.932 31.785 39.2434 31.6999 39.5349C31.6556 39.7761 31.5317 39.9967 31.3467 40.1635C31.1617 40.3303 30.9259 40.4341 30.6747 40.4592C30.605 40.4681 30.5345 40.4681 30.4648 40.4592C30.3311 40.4258 30.2073 40.3623 30.1035 40.2738C29.9997 40.1854 29.9189 40.0744 29.8675 39.95C29.7355 39.6755 29.7097 39.3641 29.7948 39.0727C29.8457 38.8361 29.9736 38.6215 30.1596 38.4608C30.3457 38.3 30.58 38.2015 30.8281 38.1797M30.8281 37.7645C30.4876 37.7903 30.1642 37.9202 29.9046 38.1356C29.6449 38.3509 29.4624 38.6406 29.3831 38.963C29.2542 39.3287 29.2794 39.7291 29.4533 40.0768C29.6271 40.4246 29.9356 40.6915 30.3115 40.8195C30.4142 40.8458 30.52 40.859 30.6263 40.8587C30.9668 40.8329 31.2901 40.703 31.5498 40.4877C31.8094 40.2723 31.992 39.9826 32.0712 39.6602C32.2002 39.2945 32.175 38.8942 32.0011 38.5464C31.8272 38.1987 31.5187 37.9317 31.1429 37.8037C31.0402 37.7774 30.9343 37.7642 30.8281 37.7645Z" fill="#DE5C8E"/>
<path d="M30.037 40.8665C30.2484 40.91 30.4451 41.0046 30.6088 41.1415C30.7725 41.2785 30.8979 41.4533 30.9734 41.6498C31.2559 42.2451 31.151 42.8326 30.8765 42.9501C30.834 42.959 30.7899 42.959 30.7474 42.9501C30.536 42.9066 30.3393 42.812 30.1756 42.6751C30.0119 42.5382 29.8865 42.3633 29.811 42.1668C29.674 41.8892 29.6208 41.5796 29.6576 41.2738C29.6621 41.1913 29.6873 41.1111 29.7309 41.0401C29.7745 40.9692 29.8352 40.9096 29.9079 40.8665C29.9504 40.8578 29.9944 40.8578 30.037 40.8665ZM30.037 40.4513C29.9313 40.4505 29.8267 40.4719 29.7303 40.514C29.1975 40.749 29.0603 41.5715 29.4235 42.3626C29.5244 42.639 29.7009 42.8834 29.9342 43.0697C30.1674 43.2561 30.4485 43.3772 30.7474 43.4201C30.8531 43.4209 30.9577 43.3995 31.0541 43.3575C31.5869 43.1225 31.7241 42.3 31.3609 41.5088C31.26 41.2325 31.0835 40.988 30.8502 40.8017C30.617 40.6154 30.3359 40.4943 30.037 40.4513Z" fill="#DE5C8E"/>
<path d="M30.1015 41.3209C30.5117 41.3209 30.8442 40.9982 30.8442 40.6002C30.8442 40.2022 30.5117 39.8795 30.1015 39.8795C29.6914 39.8795 29.3589 40.2022 29.3589 40.6002C29.3589 40.9982 29.6914 41.3209 30.1015 41.3209Z" fill="#DE5C8E"/>
<path d="M29.5042 41.595H29.2217V43.8353H29.5042V41.595Z" fill="#DE5C8E"/>
<path d="M28.6566 44.2427C28.6152 44.2005 28.592 44.1444 28.592 44.086C28.5937 44.0379 28.6106 43.9914 28.6405 43.9529L29.367 43.0834L30.0854 43.9685C30.1204 44.0109 30.1402 44.0631 30.1419 44.1174C30.1419 44.1757 30.1188 44.2318 30.0773 44.274L28.6566 44.2427Z" fill="#DE5C8E"/>
<path d="M28.592 47H30.1419V44.0625H28.592V47Z" fill="#DE5C8E"/>
<path d="M19.1878 29.8763C19.1892 30.3888 19.3912 30.8816 19.7529 31.255C20.1346 31.6471 20.3704 32.1516 20.4229 32.6885H11.7129C11.7672 32.152 12.0027 31.6481 12.3829 31.255C12.7432 30.8807 12.9449 30.3885 12.9479 29.8763H19.1878ZM19.4703 29.6022H12.6654V29.8215C12.675 30.2793 12.5014 30.7229 12.1811 31.0592C11.677 31.5708 11.389 32.2472 11.3738 32.9548H20.7296C20.7145 32.2472 20.4265 31.5708 19.9224 31.0592C19.6013 30.7234 19.4276 30.2795 19.4381 29.8215V29.6022H19.4703Z" fill="#DE5C8E"/>
<path d="M16.08 8.34253C16.238 8.35467 16.385 8.42569 16.4903 8.54071C16.5955 8.65573 16.6508 8.80582 16.6446 8.95952C16.6383 9.11322 16.571 9.2586 16.4567 9.3652C16.3424 9.4718 16.19 9.53133 16.0315 9.53133C15.873 9.53133 15.7207 9.4718 15.6064 9.3652C15.4921 9.2586 15.4248 9.11322 15.4185 8.95952C15.4123 8.80582 15.4675 8.65573 15.5728 8.54071C15.678 8.42569 15.8251 8.35467 15.9831 8.34253H16.0558M16.1445 8.06836H15.9831C15.7525 8.08656 15.5381 8.1906 15.3848 8.35871C15.2315 8.52682 15.1511 8.74596 15.1605 8.97028C15.1699 9.19459 15.2683 9.40668 15.4352 9.56218C15.602 9.71767 15.8244 9.8045 16.0558 9.8045C16.2871 9.8045 16.5095 9.71767 16.6764 9.56218C16.8432 9.40668 16.9417 9.19459 16.951 8.97028C16.9604 8.74596 16.88 8.52682 16.7267 8.35871C16.5734 8.1906 16.359 8.08656 16.1284 8.06836H16.1445Z" fill="#DE5C8E"/>
<path d="M16.3383 10.8649V11.9772C16.3358 12.2391 16.3519 12.5008 16.3868 12.7605L16.968 17.3039H15.1678L15.7571 12.7605C15.7571 12.5647 15.8056 12.032 15.7975 11.9772V10.8649H16.3383ZM16.6209 10.5907H15.515V11.985C15.515 12.0555 15.515 12.5725 15.4746 12.7684L14.853 17.6172H17.2747L16.6531 12.7684C16.6201 12.5086 16.6066 12.2467 16.6128 11.985V10.5907H16.6209Z" fill="#DE5C8E"/>
<path d="M17.6864 22.8107L18.1546 24.957V25.004V25.0432L18.2757 25.2155C18.5239 25.5799 18.6687 26.0014 18.6954 26.4375H13.4162C13.4444 26.0017 13.589 25.5806 13.8359 25.2155L13.957 25.0353V24.9962V24.9492L14.4252 22.8107H17.6541M17.8801 22.5365H14.2395L13.7229 24.8865L13.6099 25.051C13.2821 25.5431 13.1109 26.1179 13.1175 26.7038H19.0426C19.0513 26.1248 18.8858 25.5558 18.5663 25.0667L18.4533 24.91L17.9367 22.56L17.8801 22.5365Z" fill="#DE5C8E"/>
<path d="M16.9922 18.3301C16.986 18.6209 17.0613 18.9079 17.2101 19.1604V19.2152C17.3182 19.355 17.3952 19.5151 17.4362 19.6852V20.6409H14.6674V19.6931C14.7061 19.5236 14.7803 19.3636 14.8853 19.2231L14.9257 19.1604C15.0741 18.9077 15.1494 18.6208 15.1436 18.3301H17.0002M17.2747 18.0167H14.853V18.2831C14.8616 18.526 14.8031 18.7667 14.6835 18.9802C14.5367 19.1734 14.4348 19.3953 14.3848 19.6304V20.8837H17.759V19.6304C17.7072 19.3945 17.6024 19.1725 17.4523 18.9802C17.3324 18.7668 17.2738 18.526 17.2828 18.2831V18.0167H17.2747Z" fill="#DE5C8E"/>
<path d="M16.0639 20.0847C16.3626 20.0847 16.6047 19.8497 16.6047 19.5599C16.6047 19.27 16.3626 19.035 16.0639 19.035C15.7652 19.035 15.523 19.27 15.523 19.5599C15.523 19.8497 15.7652 20.0847 16.0639 20.0847Z" fill="#DE5C8E"/>
<path d="M16.0639 24.1579C16.3626 24.1579 16.6047 23.923 16.6047 23.6331C16.6047 23.3433 16.3626 23.1083 16.0639 23.1083C15.7652 23.1083 15.523 23.3433 15.523 23.6331C15.523 23.923 15.7652 24.1579 16.0639 24.1579Z" fill="#DE5C8E"/>
<path d="M18.0093 21.5416C18.0344 21.5434 18.0579 21.5539 18.0757 21.5712C18.0935 21.5884 18.1043 21.6113 18.1062 21.6356V21.6905C18.1043 21.7148 18.0935 21.7377 18.0757 21.7549C18.0579 21.7722 18.0344 21.7826 18.0093 21.7845H14.1346C14.1095 21.7826 14.0859 21.7722 14.0682 21.7549C14.0504 21.7377 14.0396 21.7148 14.0377 21.6905V21.6356C14.0396 21.6113 14.0504 21.5884 14.0682 21.5712C14.0859 21.5539 14.1095 21.5434 14.1346 21.5416H18.0093ZM18.0093 21.2675H14.1346C14.0346 21.2695 13.9393 21.3089 13.8686 21.3775C13.7979 21.4461 13.7573 21.5386 13.7552 21.6356V21.6905C13.7573 21.7875 13.7979 21.88 13.8686 21.9486C13.9393 22.0172 14.0346 22.0566 14.1346 22.0586H18.0093C18.1093 22.0566 18.2046 22.0172 18.2753 21.9486C18.346 21.88 18.3866 21.7875 18.3887 21.6905V21.6356C18.3866 21.5386 18.346 21.4461 18.2753 21.3775C18.2046 21.3089 18.1093 21.2695 18.0093 21.2675Z" fill="#DE5C8E"/>
<path d="M15.2566 32.9626H12.3102L12.2618 32.9C12.1524 32.7785 12.0922 32.6226 12.0923 32.4613C12.0973 32.3144 12.1479 32.1724 12.2376 32.054L13.7794 29.939L15.3373 32.1166C15.4123 32.226 15.4542 32.3535 15.4584 32.4848C15.4661 32.6323 15.4235 32.7782 15.3373 32.9L15.2566 32.9626ZM12.4394 32.6885H15.1194C15.1618 32.6256 15.1842 32.5521 15.184 32.477C15.1811 32.3987 15.156 32.3228 15.1113 32.2576L13.7794 30.4325L12.4717 32.2263C12.4142 32.2985 12.3804 32.3859 12.3748 32.477C12.3769 32.5529 12.4022 32.6265 12.4475 32.6885H12.4394Z" fill="#DE5C8E"/>
<path d="M17.5411 32.9626H14.5947L14.5301 32.9C14.4213 32.7781 14.3612 32.6225 14.3606 32.4613C14.3656 32.3144 14.4162 32.1724 14.5059 32.054L16.0477 29.939L17.6379 32.1166C17.7129 32.226 17.7548 32.3535 17.759 32.4848C17.7592 32.6461 17.6989 32.802 17.5895 32.9235L17.5411 32.9626ZM14.7238 32.6885H17.4038C17.4462 32.6256 17.4687 32.5521 17.4684 32.477C17.4656 32.3987 17.4404 32.3228 17.3958 32.2576L16.0638 30.4325L14.7561 32.2263C14.6986 32.2985 14.6649 32.3859 14.6593 32.477C14.6595 32.552 14.6819 32.6254 14.7238 32.6885Z" fill="#DE5C8E"/>
<path d="M19.8255 32.9626H16.8711L16.8307 32.9C16.7213 32.7785 16.6611 32.6226 16.6612 32.4613C16.6662 32.3144 16.7168 32.1724 16.8065 32.054L18.3483 29.939L19.9224 32.1166C19.9973 32.226 20.0392 32.3535 20.0435 32.4848C20.0429 32.646 19.9827 32.8016 19.874 32.9235L19.8255 32.9626ZM17.0083 32.6885H19.6883C19.7303 32.6254 19.7527 32.552 19.7529 32.477C19.75 32.3987 19.7249 32.3228 19.6802 32.2576L18.3483 30.4325L17.0406 32.2263C16.9831 32.2985 16.9493 32.3859 16.9437 32.477C16.9435 32.5521 16.9659 32.6256 17.0083 32.6885Z" fill="#DE5C8E"/>
<path d="M12.4152 23.6489C12.5433 23.7761 12.623 23.9418 12.6412 24.1189C12.623 24.2959 12.5433 24.4616 12.4152 24.5889V24.5262C12.3537 24.41 12.3232 24.2808 12.3264 24.1502C12.3218 24.017 12.3524 23.8849 12.4152 23.7664V23.7037M12.1084 23.077C12.1596 23.1547 12.1902 23.2435 12.1972 23.3355C12.1997 23.4291 12.1683 23.5206 12.1084 23.594C12.018 23.7579 11.9706 23.9408 11.9706 24.1267C11.9706 24.3126 12.018 24.4955 12.1084 24.6594C12.1683 24.7328 12.1997 24.8243 12.1972 24.9179C12.1902 25.0098 12.1596 25.0987 12.1084 25.1764C12.2154 25.1415 12.3122 25.0824 12.3909 25.004C12.5484 24.9151 12.6791 24.7877 12.7699 24.6344C12.8608 24.4811 12.9086 24.3074 12.9086 24.1306C12.9086 23.9538 12.8608 23.7801 12.7699 23.6268C12.6791 23.4736 12.5484 23.3461 12.3909 23.2572C12.3122 23.1788 12.2154 23.1197 12.1084 23.0849V23.077Z" fill="#DE5C8E"/>
<path d="M13.7229 25.0667C13.6816 24.8481 13.5631 24.6503 13.3878 24.5073C13.2124 24.3644 12.9913 24.2851 12.7623 24.2833V24.0092C13.0503 24.0096 13.3296 24.1053 13.5541 24.2805C13.7786 24.4556 13.9349 24.6998 13.9973 24.9727L13.7229 25.0667Z" fill="#DE5C8E"/>
<path d="M19.7367 23.6489V23.7116C19.7982 23.8277 19.8287 23.957 19.8255 24.0876C19.83 24.2207 19.7995 24.3529 19.7367 24.4714V24.5341C19.6086 24.4068 19.5289 24.2411 19.5107 24.0641C19.5289 23.887 19.6086 23.7213 19.7367 23.5941M20.0354 23.0301C19.9285 23.0649 19.8316 23.124 19.7529 23.2024C19.5954 23.2913 19.4647 23.4188 19.3739 23.572C19.283 23.7253 19.2352 23.899 19.2352 24.0758C19.2352 24.2526 19.283 24.4263 19.3739 24.5796C19.4647 24.7328 19.5954 24.8603 19.7529 24.9492C19.8316 25.0276 19.9285 25.0867 20.0354 25.1216C19.9842 25.0439 19.9537 24.955 19.9466 24.8631C19.9441 24.7694 19.9755 24.678 20.0354 24.6046C20.1258 24.4407 20.1732 24.2577 20.1732 24.0719C20.1732 23.886 20.1258 23.703 20.0354 23.5392C19.9755 23.4658 19.9441 23.3743 19.9466 23.2807C19.9537 23.1887 19.9842 23.0999 20.0354 23.0222V23.0301Z" fill="#DE5C8E"/>
<path d="M18.4452 25.0039L18.1707 24.9334C18.2413 24.6752 18.3971 24.4466 18.6143 24.2825C18.8316 24.1184 19.0982 24.0278 19.3735 24.0248V24.2833C19.1586 24.2876 18.9512 24.3605 18.7833 24.4908C18.6155 24.6211 18.4966 24.8014 18.4452 25.0039Z" fill="#DE5C8E"/>
<path d="M13.1901 18.9097C13.3183 19.0369 13.398 19.2027 13.4161 19.3797C13.398 19.5567 13.3183 19.7225 13.1901 19.8497V19.787C13.1274 19.6685 13.0968 19.5364 13.1013 19.4032C13.0968 19.27 13.1274 19.1379 13.1901 19.0194V18.9567M12.9157 18.3457C12.9669 18.4234 12.9974 18.5122 13.0045 18.6042C13.007 18.6978 12.9756 18.7893 12.9157 18.8627C12.8252 19.0265 12.7779 19.2095 12.7779 19.3954C12.7779 19.5812 12.8252 19.7642 12.9157 19.928C12.9756 20.0014 13.007 20.0929 13.0045 20.1865C12.9974 20.2785 12.9669 20.3673 12.9157 20.445C13.0226 20.4102 13.1195 20.3511 13.1982 20.2727C13.3557 20.1838 13.4864 20.0563 13.5772 19.9031C13.668 19.7498 13.7158 19.5761 13.7158 19.3993C13.7158 19.2225 13.668 19.0488 13.5772 18.8955C13.4864 18.7422 13.3557 18.6148 13.1982 18.5259C13.1195 18.4475 13.0226 18.3884 12.9157 18.3535V18.3457Z" fill="#DE5C8E"/>
<path d="M14.3848 20.0455C14.2961 19.9028 14.1705 19.785 14.0204 19.7039C13.8703 19.6229 13.7009 19.5813 13.5292 19.5834V19.3092C13.7521 19.3096 13.971 19.3669 14.1637 19.4756C14.3565 19.5842 14.5163 19.7403 14.627 19.928L14.3848 20.0455Z" fill="#DE5C8E"/>
<path d="M18.9456 18.9175V18.9802C19.0084 19.0987 19.039 19.2308 19.0344 19.364C19.039 19.4972 19.0084 19.6293 18.9456 19.7479V19.8105C18.8175 19.6833 18.7378 19.5176 18.7196 19.3405C18.7378 19.1635 18.8175 18.9978 18.9456 18.8705M19.2443 18.3065C19.1374 18.3414 19.0405 18.4005 18.9618 18.4789C18.8043 18.5678 18.6736 18.6952 18.5828 18.8485C18.492 19.0018 18.4442 19.1755 18.4442 19.3523C18.4442 19.5291 18.492 19.7028 18.5828 19.8561C18.6736 20.0093 18.8043 20.1368 18.9618 20.2257C19.0405 20.3041 19.1374 20.3632 19.2443 20.398C19.1931 20.3204 19.1626 20.2315 19.1555 20.1395C19.153 20.0459 19.1844 19.9544 19.2443 19.881C19.3348 19.7172 19.3821 19.5342 19.3821 19.3484C19.3821 19.1625 19.3348 18.9795 19.2443 18.8157C19.1844 18.7423 19.153 18.6508 19.1555 18.5572C19.1626 18.4652 19.1931 18.3764 19.2443 18.2987V18.3065Z" fill="#DE5C8E"/>
<path d="M17.759 20.0455L17.5168 19.9045C17.6244 19.7249 17.777 19.5747 17.9605 19.4679C18.144 19.3611 18.3524 19.301 18.5662 19.2935V19.5833C18.4027 19.5892 18.2433 19.6345 18.1023 19.7152C17.9614 19.7959 17.8434 19.9094 17.759 20.0455Z" fill="#DE5C8E"/>
<path d="M10.8733 27.2443C11.0015 27.3715 11.0812 27.5373 11.0994 27.7143C11.0812 27.8913 11.0015 28.0571 10.8733 28.1843V28.1216C10.8078 28.0038 10.7744 27.8717 10.7765 27.7378C10.772 27.6046 10.8025 27.4725 10.8653 27.354V27.2913M10.5666 26.7273C10.6178 26.805 10.6483 26.8938 10.6554 26.9858C10.6579 27.0794 10.6265 27.1709 10.5666 27.2443C10.4762 27.4081 10.4288 27.5911 10.4288 27.777C10.4288 27.9628 10.4762 28.1458 10.5666 28.3096C10.6265 28.383 10.6579 28.4745 10.6554 28.5681C10.6483 28.6601 10.6178 28.7489 10.5666 28.8266C10.6735 28.7918 10.7704 28.7327 10.8491 28.6543C11.0066 28.5654 11.1373 28.4379 11.2281 28.2847C11.319 28.1314 11.3668 27.9577 11.3668 27.7809C11.3668 27.6041 11.319 27.4304 11.2281 27.2771C11.1373 27.1238 11.0066 26.9964 10.8491 26.9075C10.7704 26.8291 10.6735 26.77 10.5666 26.7351V26.7273Z" fill="#DE5C8E"/>
<path d="M12.1811 28.7013C12.1395 28.4814 12.0199 28.2826 11.8429 28.1395C11.6659 27.9963 11.4428 27.918 11.2124 27.918V27.6438C11.5147 27.6441 11.807 27.7492 12.0364 27.9403C12.2659 28.1313 12.4174 28.3957 12.4636 28.6856L12.1811 28.7013Z" fill="#DE5C8E"/>
<path d="M21.2947 27.2443V27.307C21.3603 27.4248 21.3936 27.5569 21.3916 27.6908C21.3961 27.824 21.3655 27.9561 21.3028 28.0747V28.1373C21.1746 28.0101 21.0949 27.8443 21.0767 27.6673C21.0949 27.4903 21.1746 27.3245 21.3028 27.1973M21.6014 26.6333C21.4945 26.6682 21.3976 26.7273 21.3189 26.8057C21.1614 26.8946 21.0307 27.022 20.9399 27.1753C20.8491 27.3286 20.8013 27.5023 20.8013 27.6791C20.8013 27.8559 20.8491 28.0296 20.9399 28.1828C21.0307 28.3361 21.1614 28.4636 21.3189 28.5525C21.3976 28.6309 21.4945 28.69 21.6014 28.7248C21.5502 28.6471 21.5197 28.5583 21.5126 28.4663C21.5101 28.3727 21.5415 28.2812 21.6014 28.2078C21.6919 28.044 21.7392 27.861 21.7392 27.6752C21.7392 27.4893 21.6919 27.3063 21.6014 27.1425C21.5415 27.0691 21.5101 26.9776 21.5126 26.884C21.5197 26.792 21.5502 26.7032 21.6014 26.6255V26.6333Z" fill="#DE5C8E"/>
<path d="M19.987 28.7014L19.7045 28.6622C19.7515 28.3669 19.9076 28.0982 20.1438 27.9065C20.38 27.7148 20.6801 27.6131 20.988 27.6204V27.8945C20.7485 27.8879 20.5148 27.9662 20.3306 28.1147C20.1464 28.2632 20.0242 28.4718 19.987 28.7014Z" fill="#DE5C8E"/>
<path d="M19.1636 27.4166C19.3563 27.4166 19.5411 27.4909 19.6773 27.6231C19.8136 27.7553 19.8901 27.9346 19.8901 28.1216C19.8901 28.3086 19.8136 28.4879 19.6773 28.6201C19.5411 28.7523 19.3563 28.8266 19.1636 28.8266H12.9157C12.723 28.8266 12.5382 28.7523 12.4019 28.6201C12.2657 28.4879 12.1891 28.3086 12.1891 28.1216C12.1891 27.9346 12.2657 27.7553 12.4019 27.6231C12.5382 27.4909 12.723 27.4166 12.9157 27.4166H19.1394M19.1394 27.1425H12.9157C12.648 27.1425 12.3914 27.2456 12.2022 27.4292C12.0129 27.6129 11.9066 27.8619 11.9066 28.1216C11.9066 28.3813 12.0129 28.6304 12.2022 28.814C12.3914 28.9976 12.648 29.1008 12.9157 29.1008H19.1555C19.4231 29.1008 19.6798 28.9976 19.869 28.814C20.0583 28.6304 20.1646 28.3813 20.1646 28.1216C20.1646 27.8619 20.0583 27.6129 19.869 27.4292C19.6798 27.2456 19.4231 27.1425 19.1555 27.1425H19.1394Z" fill="#DE5C8E"/>
<path d="M17.3231 28.9676H17.7832L18.8407 28.1608L17.7832 27.3618H17.3312L18.3806 28.1608L17.3231 28.9676Z" fill="#DE5C8E"/>
<path d="M14.8611 28.9676L13.8036 28.1608L14.8611 27.3618H14.401L13.3516 28.1608L14.401 28.9676H14.8611Z" fill="#DE5C8E"/>
<path d="M16.0961 28.6857C16.3948 28.6857 16.637 28.4507 16.637 28.1608C16.637 27.871 16.3948 27.636 16.0961 27.636C15.7974 27.636 15.5553 27.871 15.5553 28.1608C15.5553 28.4507 15.7974 28.6857 16.0961 28.6857Z" fill="#DE5C8E"/>
<path d="M20.5762 33.7303C20.7689 33.7303 20.9537 33.8046 21.09 33.9368C21.2262 34.069 21.3027 34.2484 21.3027 34.4353C21.3027 34.6223 21.2262 34.8016 21.09 34.9339C20.9537 35.0661 20.7689 35.1403 20.5762 35.1403H11.5272C11.3345 35.1403 11.1497 35.0661 11.0135 34.9339C10.8772 34.8016 10.8007 34.6223 10.8007 34.4353C10.8007 34.2484 10.8772 34.069 11.0135 33.9368C11.1497 33.8046 11.3345 33.7303 11.5272 33.7303H20.5762ZM20.5762 33.4562H11.5353C11.2677 33.4562 11.011 33.5593 10.8218 33.743C10.6326 33.9266 10.5262 34.1757 10.5262 34.4353C10.5262 34.695 10.6326 34.9441 10.8218 35.1277C11.011 35.3113 11.2677 35.4145 11.5353 35.4145H20.6005C20.8681 35.4145 21.1247 35.3113 21.314 35.1277C21.5032 34.9441 21.6095 34.695 21.6095 34.4353C21.6095 34.1757 21.5032 33.9266 21.314 33.743C21.1247 33.5593 20.8681 33.4562 20.6005 33.4562H20.5762Z" fill="#DE5C8E"/>
<path d="M18.2999 35.344H18.7519L19.9466 34.4354L18.8407 33.5894H18.3887L19.4946 34.4354L18.2999 35.344Z" fill="#DE5C8E"/>
<path d="M17.1617 35.344H17.6137L18.8084 34.4354L17.7025 33.5894H17.2505L18.3564 34.4354L17.1617 35.344Z" fill="#DE5C8E"/>
<path d="M14.9741 35.344L13.7794 34.4354L14.8934 33.5894H14.4333L13.3193 34.4354L14.514 35.344H14.9741Z" fill="#DE5C8E"/>
<path d="M13.8843 35.344L12.6896 34.4354L13.8036 33.5894H13.3354L12.2295 34.4354L13.4242 35.344H13.8843Z" fill="#DE5C8E"/>
<path d="M16.0639 34.9602C16.3626 34.9602 16.6047 34.7252 16.6047 34.4354C16.6047 34.1455 16.3626 33.9105 16.0639 33.9105C15.7652 33.9105 15.523 34.1455 15.523 34.4354C15.523 34.7252 15.7652 34.9602 16.0639 34.9602Z" fill="#DE5C8E"/>
<path d="M11.3093 34.9602C11.608 34.9602 11.8501 34.7252 11.8501 34.4354C11.8501 34.1455 11.608 33.9105 11.3093 33.9105C11.0106 33.9105 10.7684 34.1455 10.7684 34.4354C10.7684 34.7252 11.0106 34.9602 11.3093 34.9602Z" fill="#DE5C8E"/>
<path d="M20.8346 34.9602C21.1333 34.9602 21.3754 34.7252 21.3754 34.4354C21.3754 34.1455 21.1333 33.9105 20.8346 33.9105C20.5359 33.9105 20.2938 34.1455 20.2938 34.4354C20.2938 34.7252 20.5359 34.9602 20.8346 34.9602Z" fill="#DE5C8E"/>
<path d="M18.8407 26.4375H17.759C17.7691 26.3778 17.7691 26.317 17.759 26.2573C17.7552 26.1333 17.713 26.0132 17.6379 25.9127L17.3877 25.6072L18.1949 24.6358L18.1142 24.2833L17.2263 25.3878L16.0719 23.9622L14.9256 25.38L13.9812 24.2128L13.8843 24.534L14.7481 25.5993L14.5301 25.85C14.4399 25.9592 14.3889 26.0939 14.3848 26.2338C14.3747 26.2935 14.3747 26.3543 14.3848 26.414H13.2305V26.6882H18.8811L18.8407 26.4375ZM15.1275 26.4375H14.7158C14.6755 26.3854 14.6529 26.3224 14.6512 26.2573C14.6552 26.1767 14.6864 26.0997 14.74 26.038L14.9176 25.8265L15.1194 26.0693C15.1623 26.1236 15.1876 26.1891 15.192 26.2573C15.1903 26.3224 15.1678 26.3854 15.1275 26.4375ZM16.8226 25.8735C16.7324 25.9827 16.6814 26.1174 16.6773 26.2573C16.6672 26.317 16.6672 26.3778 16.6773 26.4375H15.4423C15.4524 26.3778 15.4524 26.317 15.4423 26.2573C15.438 26.1333 15.3958 26.0134 15.3212 25.9127L15.071 25.6072L16.0396 24.4008L17.0164 25.6072L16.8226 25.8735ZM17.4281 26.4375H17.0164C16.9761 26.3854 16.9535 26.3224 16.9518 26.2573C16.9558 26.1767 16.987 26.0997 17.0406 26.038L17.2182 25.8265L17.42 26.0693C17.4633 26.1234 17.4887 26.1889 17.4926 26.2573C17.4933 26.3216 17.4736 26.3845 17.4361 26.4375H17.4281Z" fill="#DE5C8E"/>
<path d="M17.7913 29.7588L17.2101 30.55L16.6289 29.7588H16.2899L17.2101 31.0278L18.1384 29.7588H17.7913Z" fill="#DE5C8E"/>
<path d="M15.5069 29.7588L14.9257 30.55L14.3445 29.7588H14.0054L14.9257 31.0278L15.854 29.7588H15.5069Z" fill="#DE5C8E"/>
</g>
<defs>
<linearGradient id="paint0_linear_1_10815" x1="125.08" y1="34.31" x2="125.08" y2="15.3063" gradientUnits="userSpaceOnUse">
<stop offset="0.17" stop-color="#DF5F91"/>
<stop offset="0.64" stop-color="#EC86B5"/>
<stop offset="0.91" stop-color="#DE5C8E"/>
</linearGradient>
<linearGradient id="paint1_linear_1_10815" x1="109.743" y1="36.3545" x2="110.244" y2="5.47504" gradientUnits="userSpaceOnUse">
<stop offset="0.48" stop-color="#DF5F91"/>
<stop offset="0.85" stop-color="#EC86B5"/>
</linearGradient>
<linearGradient id="paint2_linear_1_10815" x1="111.163" y1="35.0854" x2="111.452" y2="13.8412" gradientUnits="userSpaceOnUse">
<stop offset="0.17" stop-color="#DF5F91"/>
<stop offset="0.64" stop-color="#EC86B5"/>
<stop offset="0.91" stop-color="#DE5C8E"/>
</linearGradient>
<linearGradient id="paint3_linear_1_10815" x1="97.2468" y1="34.31" x2="97.2468" y2="15.2515" gradientUnits="userSpaceOnUse">
<stop offset="0.19" stop-color="#DF5F91"/>
<stop offset="0.47" stop-color="#EC86B5"/>
<stop offset="1" stop-color="#DE5C8E"/>
</linearGradient>
<linearGradient id="paint4_linear_1_10815" x1="72.7233" y1="27.8945" x2="72.7233" y2="4.43366" gradientUnits="userSpaceOnUse">
<stop offset="0.01" stop-color="#DF5F91"/>
<stop offset="0.29" stop-color="#EC86B5"/>
<stop offset="0.72" stop-color="#DE5C8E"/>
</linearGradient>
<linearGradient id="paint5_linear_1_10815" x1="73.5062" y1="34.263" x2="73.5062" y2="22.2545" gradientUnits="userSpaceOnUse">
<stop offset="0.3" stop-color="#DF5F91"/>
<stop offset="0.61" stop-color="#EC86B5"/>
<stop offset="1" stop-color="#DE5C8E"/>
</linearGradient>
<linearGradient id="paint6_linear_1_10815" x1="40.87" y1="18.8078" x2="87.8346" y2="18.8078" gradientUnits="userSpaceOnUse">
<stop offset="0.23" stop-color="#DF5F91"/>
<stop offset="0.4" stop-color="#EC86B5"/>
<stop offset="1" stop-color="#DE5C8E"/>
</linearGradient>
<linearGradient id="paint7_linear_1_10815" x1="73.5063" y1="31.2785" x2="73.5063" y2="22.2075" gradientUnits="userSpaceOnUse">
<stop stop-color="#EC86B5" stop-opacity="0"/>
<stop offset="0.75" stop-color="#CE4E82"/>
</linearGradient>
<linearGradient id="paint8_linear_1_10815" x1="83.8953" y1="30.2993" x2="84.3439" y2="21.4619" gradientUnits="userSpaceOnUse">
<stop stop-color="#EC86B5" stop-opacity="0"/>
<stop offset="0.51" stop-color="#EC86B5"/>
<stop offset="1" stop-color="#EC86B5" stop-opacity="0"/>
</linearGradient>
<clipPath id="clip0_1_10815">
<rect width="134" height="47" fill="white"/>
</clipPath>
</defs>
</svg>
