<svg width="201" height="160" viewBox="0 0 201 160" fill="none" xmlns="http://www.w3.org/2000/svg">
<path d="M159.447 126.853C159.421 126.809 159.387 126.771 159.347 126.74C159.307 126.709 159.26 126.687 159.211 126.674C159.162 126.662 159.111 126.659 159.061 126.666C159.011 126.673 158.963 126.69 158.919 126.716L157.636 127.472L156.881 126.189C156.829 126.101 156.744 126.037 156.645 126.012C156.571 125.993 156.494 125.997 156.422 126.022C156.35 126.047 156.287 126.093 156.242 126.154C156.196 126.215 156.169 126.288 156.165 126.364C156.161 126.441 156.18 126.516 156.219 126.582L156.972 127.865L155.689 128.621C155.646 128.646 155.607 128.68 155.577 128.721C155.546 128.761 155.524 128.808 155.511 128.857C155.487 128.955 155.502 129.059 155.553 129.147C155.579 129.191 155.613 129.229 155.653 129.26C155.693 129.29 155.739 129.313 155.789 129.325C155.838 129.338 155.889 129.341 155.939 129.334C155.989 129.326 156.037 129.309 156.081 129.283L157.364 128.528L158.117 129.811C158.158 129.88 158.219 129.934 158.292 129.967C158.365 129.999 158.446 130.008 158.525 129.993C158.567 129.984 158.608 129.969 158.645 129.946C158.688 129.92 158.726 129.886 158.757 129.846C158.787 129.806 158.809 129.76 158.822 129.711C158.834 129.662 158.837 129.611 158.83 129.561C158.822 129.511 158.805 129.463 158.78 129.42L158.026 128.136L159.309 127.382C159.353 127.357 159.391 127.322 159.422 127.282C159.452 127.241 159.475 127.195 159.488 127.146C159.5 127.097 159.503 127.046 159.496 126.995C159.489 126.945 159.472 126.897 159.447 126.853Z" fill="#8A97AB"/>
<path d="M162 134C161.703 134 161.413 133.912 161.167 133.747C160.92 133.582 160.728 133.348 160.614 133.074C160.501 132.8 160.471 132.498 160.529 132.207C160.587 131.916 160.73 131.649 160.939 131.439C161.149 131.23 161.416 131.087 161.707 131.029C161.998 130.971 162.3 131.001 162.574 131.114C162.848 131.228 163.082 131.42 163.247 131.667C163.412 131.913 163.5 132.203 163.5 132.5C163.5 132.898 163.341 133.279 163.06 133.56C162.779 133.841 162.398 134 162 134ZM162 131.803C161.862 131.803 161.727 131.844 161.612 131.921C161.497 131.998 161.407 132.107 161.355 132.235C161.302 132.362 161.288 132.503 161.315 132.638C161.342 132.774 161.409 132.898 161.507 132.996C161.604 133.093 161.729 133.16 161.865 133.187C162 133.213 162.141 133.199 162.268 133.146C162.396 133.093 162.505 133.003 162.581 132.888C162.658 132.773 162.699 132.638 162.698 132.5C162.698 132.315 162.624 132.138 162.493 132.007C162.362 131.876 162.185 131.803 162 131.803Z" fill="#8A97AB"/>
<path d="M21.0014 154C20.7047 154 20.4146 153.913 20.1677 153.748C19.9208 153.583 19.7283 153.349 19.6146 153.075C19.5008 152.801 19.4709 152.499 19.5286 152.208C19.5864 151.917 19.7291 151.65 19.9388 151.44C20.1486 151.23 20.4158 151.087 20.7068 151.029C20.9979 150.971 21.2995 151.001 21.5737 151.114C21.8479 151.228 22.0822 151.42 22.2471 151.667C22.412 151.913 22.5 152.203 22.5 152.5C22.4996 152.897 22.3417 153.279 22.0608 153.56C21.7798 153.841 21.3989 153.999 21.0014 154ZM21.0014 151.803C20.8633 151.803 20.7282 151.844 20.6133 151.921C20.4984 151.998 20.4089 152.107 20.3561 152.235C20.3033 152.362 20.2895 152.503 20.3166 152.638C20.3437 152.774 20.4103 152.898 20.5081 152.996C20.6059 153.093 20.7305 153.16 20.8661 153.187C21.0016 153.213 21.1421 153.199 21.2697 153.146C21.3973 153.093 21.5062 153.003 21.5828 152.888C21.6594 152.773 21.7001 152.638 21.6998 152.5C21.6994 152.315 21.6257 152.138 21.4948 152.007C21.3638 151.876 21.1864 151.803 21.0014 151.803Z" fill="#8A97AB"/>
<path d="M176 4C175.703 4 175.413 3.91199 175.167 3.7471C174.92 3.58222 174.728 3.34786 174.614 3.07369C174.501 2.79952 174.471 2.49785 174.529 2.20684C174.587 1.91582 174.73 1.64855 174.94 1.43883C175.15 1.22911 175.417 1.08636 175.708 1.02865C175.999 0.970933 176.301 1.00084 176.575 1.11459C176.849 1.22834 177.083 1.42083 177.248 1.66769C177.413 1.91455 177.5 2.2047 177.5 2.50143C177.5 2.89901 177.341 3.28017 177.06 3.56117C176.779 3.84216 176.398 4 176 4ZM176 1.80306C175.862 1.80306 175.727 1.84402 175.612 1.92075C175.497 1.99749 175.408 2.10657 175.355 2.23418C175.302 2.36179 175.288 2.5022 175.315 2.63768C175.342 2.77315 175.409 2.89759 175.506 2.99526C175.604 3.09293 175.728 3.15944 175.864 3.18639C175.999 3.21334 176.14 3.19951 176.267 3.14665C176.395 3.09379 176.504 3.00428 176.581 2.88943C176.657 2.77458 176.698 2.63956 176.698 2.50143C176.697 2.31707 176.623 2.14076 176.492 2.0108C176.361 1.88084 176.184 1.80774 176 1.80736V1.80306Z" fill="#8A97AB"/>
<path d="M197.53 37.0386C197.441 37.0821 197.372 37.159 197.34 37.2525C197.324 37.2986 197.317 37.3475 197.321 37.3962C197.324 37.4448 197.337 37.4924 197.359 37.5361L197.989 38.8254L196.694 39.453C196.61 39.499 196.547 39.5754 196.518 39.6664C196.488 39.7574 196.496 39.8561 196.538 39.942C196.58 40.0279 196.653 40.0944 196.743 40.1277C196.833 40.161 196.933 40.1586 197.021 40.1209L198.316 39.5011L198.946 40.7904C198.99 40.8792 199.067 40.9472 199.161 40.9794C199.207 40.9957 199.256 41.0024 199.305 40.9992C199.354 40.996 199.402 40.983 199.446 40.9609C199.49 40.9397 199.53 40.91 199.562 40.8736C199.595 40.8372 199.62 40.7947 199.636 40.7486C199.652 40.7026 199.659 40.6538 199.656 40.6051C199.653 40.5564 199.64 40.5088 199.619 40.465L198.996 39.1756L200.29 38.5558C200.334 38.5344 200.373 38.5046 200.406 38.468C200.438 38.4315 200.463 38.3889 200.479 38.3427C200.496 38.2965 200.502 38.2476 200.499 38.1988C200.496 38.15 200.484 38.1023 200.462 38.0583C200.441 38.0144 200.411 37.975 200.374 37.9426C200.338 37.9102 200.295 37.8853 200.248 37.8693C200.202 37.8533 200.153 37.8466 200.104 37.8495C200.055 37.8524 200.007 37.8649 199.963 37.8863L198.668 38.5062L198.037 37.2184C198.016 37.1729 197.987 37.132 197.95 37.0982C197.912 37.0644 197.869 37.0384 197.822 37.0216C197.774 37.0048 197.724 36.9977 197.674 37.0006C197.624 37.0036 197.575 37.0165 197.53 37.0386Z" fill="#8A97AB"/>
<path d="M180 66C179.703 66 179.413 65.912 179.167 65.7472C178.92 65.5824 178.728 65.3481 178.614 65.074C178.501 64.7999 178.471 64.4983 178.529 64.2074C178.587 63.9164 178.73 63.6491 178.939 63.4393C179.149 63.2296 179.416 63.0867 179.707 63.0288C179.998 62.9709 180.3 63.0006 180.574 63.1142C180.848 63.2277 181.082 63.42 181.247 63.6666C181.412 63.9133 181.5 64.2033 181.5 64.5C181.5 64.8977 181.341 65.279 181.06 65.5602C180.779 65.8415 180.398 65.9996 180 66ZM180 63.8016C179.862 63.8016 179.727 63.8426 179.612 63.9193C179.497 63.9961 179.408 64.1051 179.355 64.2327C179.302 64.3603 179.288 64.5008 179.315 64.6362C179.342 64.7717 179.409 64.8962 179.506 64.9938C179.604 65.0915 179.728 65.158 179.864 65.185C179.999 65.2119 180.14 65.1981 180.267 65.1452C180.395 65.0924 180.504 65.0028 180.581 64.888C180.657 64.7731 180.698 64.6381 180.698 64.5C180.698 64.3149 180.624 64.1375 180.493 64.0066C180.363 63.8757 180.185 63.802 180 63.8016Z" fill="#8A97AB"/>
<path d="M0.746091 86.1198C0.662098 86.2001 0.612944 86.3104 0.609179 86.4268C0.605415 86.5431 0.647343 86.6563 0.725964 86.742L1.88434 87.9809L0.650952 89.1427C0.606404 89.1815 0.570124 89.229 0.544287 89.2822C0.518449 89.3355 0.503578 89.3934 0.50057 89.4526C0.497563 89.5117 0.506471 89.5709 0.526773 89.6265C0.547075 89.6821 0.578343 89.733 0.618718 89.7762C0.659093 89.8194 0.707739 89.854 0.76175 89.8779C0.815762 89.9019 0.874047 89.9146 0.933086 89.9155C0.992124 89.9163 1.0507 89.9052 1.10536 89.8827C1.16001 89.8603 1.2096 89.8271 1.25116 89.785L2.48638 88.6232L3.64476 89.8621C3.68399 89.9043 3.73123 89.9382 3.78371 89.9619C3.83618 89.9855 3.89284 89.9984 3.95035 89.9998C4.06657 90.0036 4.17965 89.9614 4.26512 89.8823C4.30741 89.8427 4.34148 89.7952 4.3654 89.7423C4.38931 89.6895 4.40257 89.6325 4.40444 89.5745C4.40631 89.5165 4.39675 89.4587 4.3763 89.4045C4.35584 89.3502 4.3249 89.3005 4.28525 89.2583L3.12687 88.0212L4.36209 86.8594C4.42812 86.7968 4.47323 86.7152 4.49125 86.6258C4.50927 86.5365 4.49931 86.4437 4.46275 86.3602C4.44291 86.3145 4.41569 86.2723 4.38222 86.2354C4.30202 86.1504 4.19152 86.1008 4.07491 86.0974C3.9583 86.0939 3.84509 86.137 3.76005 86.2171L2.52666 87.377L1.36828 86.14C1.32882 86.0976 1.2814 86.0634 1.22873 86.0394C1.17607 86.0154 1.11919 86.0021 1.06137 86.0002C1.00356 85.9984 0.945953 86.0079 0.891849 86.0285C0.837745 86.049 0.788204 86.08 0.746091 86.1198Z" fill="#8A97AB"/>
<path d="M15.0014 101C14.7047 101 14.4146 100.913 14.1677 100.748C13.9208 100.583 13.7283 100.349 13.6146 100.075C13.5008 99.801 13.4709 99.4993 13.5286 99.2082C13.5864 98.9172 13.7291 98.6498 13.9388 98.4398C14.1486 98.2299 14.4158 98.0869 14.7068 98.0289C14.9979 97.9709 15.2995 98.0006 15.5737 98.114C15.8479 98.2275 16.0822 98.4198 16.2471 98.6665C16.412 98.9132 16.5 99.2033 16.5 99.5C16.4996 99.8974 16.3417 100.279 16.0608 100.56C15.7798 100.841 15.3989 100.999 15.0014 101ZM15.0014 98.8016C14.8633 98.8013 14.7281 98.8421 14.613 98.9186C14.498 98.9952 14.4083 99.1042 14.3552 99.2317C14.3021 99.3593 14.2881 99.4998 14.3149 99.6354C14.3417 99.7709 14.4081 99.8955 14.5057 99.9933C14.6033 100.091 14.7277 100.158 14.8632 100.185C14.9987 100.212 15.1392 100.198 15.2669 100.145C15.3946 100.093 15.5038 100.003 15.5806 99.8881C15.6574 99.7733 15.6984 99.6382 15.6984 99.5C15.698 99.3151 15.6245 99.1379 15.4939 99.0071C15.3633 98.8762 15.1863 98.8024 15.0014 98.8016Z" fill="#8A97AB"/>
<circle cx="137" cy="61.5" r="60.5" stroke="#B2BAC8" stroke-linecap="round" stroke-dasharray="4 4"/>
<circle cx="36" cy="111.5" r="33.5" stroke="#B2BAC8" stroke-linecap="round" stroke-dasharray="4 4"/>
<path d="M147.5 36V133H147.242L139.787 125.794L132.331 133H131.554L124.099 125.794L116.642 133H115.877L108.434 125.807L100.992 133H100.23L92.7799 125.799L85.3287 133H84.5433L77.0921 125.799L69.641 133H68.8649L61.4286 125.812L53.9923 133H53.5V8H119.5L147.5 36Z" fill="#ECF1F4"/>
<path d="M147.5 36H119.5V8L147.5 36Z" fill="#ECEDEF"/>
<path d="M94.2761 157C93.969 157.306 93.6043 157.549 93.2028 157.715C92.8014 157.881 92.3711 157.966 91.9366 157.966C91.502 157.966 91.0717 157.881 90.6703 157.715C90.2689 157.549 89.9042 157.306 89.597 157L74.6069 142.084L72.0566 139.544C73.9163 138.32 75.508 136.733 76.7358 134.88L94.2788 152.341C94.8984 152.959 95.2463 153.797 95.2458 154.671C95.2452 155.545 94.8965 156.382 94.2761 157Z" fill="#FF8A00"/>
<path d="M77.752 135.826L82.9869 141.042C81.7598 142.894 80.1684 144.48 78.309 145.703L75.6245 143.029L73.0742 140.488C74.9335 139.265 76.5247 137.679 77.752 135.826Z" fill="#110000" fill-opacity="0.2"/>
<path d="M82.9665 125.027C82.9306 124.193 82.8409 123.361 82.6981 122.538C81.8566 117.627 79.1948 113.209 75.2396 110.159C71.2844 107.11 66.3242 105.651 61.3407 106.071C56.3572 106.491 51.7138 108.76 48.3296 112.429C44.9454 116.098 43.067 120.899 43.0664 125.882C43.0664 126.633 43.1085 127.383 43.1926 128.13C43.4474 130.393 44.0937 132.596 45.1026 134.64C46.5192 137.508 48.6069 139.996 51.1898 141.893C51.6077 142.201 52.0377 142.492 52.4797 142.766C55.8241 144.838 59.7084 145.877 63.6443 145.755C67.5802 145.633 71.3919 144.354 74.6002 142.079C76.4079 140.794 77.9891 139.219 79.2794 137.419C81.6923 134.054 82.986 130.02 82.9786 125.884C82.9831 125.599 82.9791 125.313 82.9665 125.027ZM63.0286 142.23C58.6773 142.23 54.5043 140.508 51.4274 137.443C48.3506 134.377 46.6221 130.22 46.6221 125.884C46.6221 121.549 48.3506 117.392 51.4274 114.326C54.5043 111.261 58.6773 109.539 63.0286 109.539C63.7466 109.537 64.464 109.581 65.1762 109.672C69.1228 110.19 72.7459 112.12 75.3705 115.102C77.995 118.084 79.442 121.914 79.4418 125.88C79.4418 126.129 79.4364 126.377 79.4257 126.623C79.2955 129.563 78.3678 132.414 76.7411 134.871C75.2105 137.188 73.1134 139.078 70.6472 140.365C69.5981 140.913 68.4917 141.346 67.348 141.655C65.9403 142.038 64.4877 142.232 63.0286 142.233V142.23Z" fill="#FF8A00"/>
<path d="M50.6058 127.619C50.1996 127.619 49.81 127.458 49.5228 127.172C49.2356 126.886 49.0742 126.498 49.0742 126.093C49.0742 122.334 50.5733 118.728 53.2415 116.07C55.9098 113.411 59.5287 111.918 63.3022 111.918C63.7007 111.93 64.079 112.096 64.3567 112.381C64.6344 112.666 64.7898 113.047 64.7898 113.444C64.7898 113.842 64.6344 114.223 64.3567 114.508C64.079 114.793 63.7007 114.959 63.3022 114.971C60.3414 114.971 57.5019 116.143 55.4084 118.229C53.3148 120.314 52.1386 123.143 52.1386 126.093C52.1386 126.294 52.099 126.492 52.0219 126.678C51.9449 126.863 51.8319 127.031 51.6896 127.173C51.5472 127.314 51.3782 127.427 51.1922 127.503C51.0063 127.58 50.807 127.619 50.6058 127.619Z" fill="#FF8A00"/>
<path d="M76.2383 54.3593C75.9863 54.6004 75.8388 54.9312 75.8275 55.2803C75.8162 55.6294 75.942 55.9689 76.1779 56.2259L79.653 59.9426L75.9529 63.428C75.8192 63.5446 75.7104 63.687 75.6329 63.8467C75.5553 64.0065 75.5107 64.1802 75.5017 64.3577C75.4927 64.5351 75.5194 64.7126 75.5803 64.8794C75.6412 65.0462 75.735 65.199 75.8562 65.3286C75.9773 65.4583 76.1232 65.5621 76.2853 65.6338C76.4473 65.7056 76.6221 65.7439 76.7993 65.7464C76.9764 65.7488 77.1521 65.7155 77.3161 65.6482C77.48 65.581 77.6288 65.4813 77.7535 65.3551L81.4591 61.8697L84.9343 65.5863C85.052 65.7129 85.1937 65.8147 85.3511 65.8856C85.5086 65.9565 85.6785 65.9952 85.851 65.9993C86.1997 66.0107 86.5389 65.8841 86.7954 65.6469C86.9222 65.5282 87.0245 65.3855 87.0962 65.227C87.1679 65.0685 87.2077 64.8974 87.2133 64.7234C87.2189 64.5495 87.1903 64.3762 87.1289 64.2134C87.0675 64.0506 86.9747 63.9016 86.8557 63.7749L83.3806 60.0637L87.0863 56.5783C87.2844 56.3903 87.4197 56.1456 87.4738 55.8775C87.5278 55.6094 87.4979 55.3311 87.3882 55.0807C87.3287 54.9434 87.2471 54.8169 87.1467 54.7062C86.906 54.4513 86.5746 54.3024 86.2247 54.2921C85.8749 54.2818 85.5353 54.4109 85.2801 54.6512L81.58 58.1311L78.1048 54.42C77.9865 54.2927 77.8442 54.1901 77.6862 54.1182C77.5282 54.0462 77.3576 54.0063 77.1841 54.0007C77.0107 53.9951 76.8379 54.0238 76.6755 54.0854C76.5132 54.1469 76.3646 54.24 76.2383 54.3593Z" fill="#B2BAC8"/>
<path d="M114.238 54.3593C113.986 54.6004 113.839 54.9312 113.828 55.2803C113.816 55.6294 113.942 55.9689 114.178 56.2259L117.653 59.9426L113.953 63.428C113.819 63.5446 113.71 63.687 113.633 63.8467C113.555 64.0065 113.511 64.1802 113.502 64.3577C113.493 64.5351 113.519 64.7126 113.58 64.8794C113.641 65.0462 113.735 65.199 113.856 65.3286C113.977 65.4583 114.123 65.5621 114.285 65.6338C114.447 65.7056 114.622 65.7439 114.799 65.7464C114.976 65.7488 115.152 65.7155 115.316 65.6482C115.48 65.581 115.629 65.4813 115.753 65.3551L119.459 61.8697L122.934 65.5863C123.052 65.7129 123.194 65.8147 123.351 65.8856C123.509 65.9565 123.679 65.9952 123.851 65.9993C124.2 66.0107 124.539 65.8841 124.795 65.6469C124.922 65.5282 125.024 65.3855 125.096 65.227C125.168 65.0685 125.208 64.8974 125.213 64.7234C125.219 64.5495 125.19 64.3762 125.129 64.2134C125.068 64.0506 124.975 63.9016 124.856 63.7749L121.381 60.0637L125.086 56.5783C125.284 56.3903 125.42 56.1456 125.474 55.8775C125.528 55.6094 125.498 55.3311 125.388 55.0807C125.329 54.9434 125.247 54.8169 125.147 54.7062C124.906 54.4513 124.575 54.3024 124.225 54.2921C123.875 54.2818 123.535 54.4109 123.28 54.6512L119.58 58.1311L116.105 54.42C115.986 54.2927 115.844 54.1901 115.686 54.1182C115.528 54.0462 115.358 54.0063 115.184 54.0007C115.011 53.9951 114.838 54.0238 114.676 54.0854C114.513 54.1469 114.365 54.24 114.238 54.3593Z" fill="#B2BAC8"/>
<line x1="91" y1="84.5" x2="110" y2="84.5" stroke="#B2BAC8" stroke-width="3" stroke-linecap="round"/>
</svg>
